<?xml version="1.0" encoding="UTF-8"?><svg id="Layer_1" xmlns="http://www.w3.org/2000/svg" viewBox="0 0 161.92 134.03"><defs><style>.cls-1{letter-spacing:0em;}.cls-2{letter-spacing:0em;}.cls-3{font-size:43.19px;}.cls-4{letter-spacing:0em;}.cls-5{font-size:71.98px;}.cls-6{fill:#fff;font-family:BigMoore, 'Big Moore';}.cls-7{letter-spacing:0em;}.cls-8{fill:#50863d;stroke-width:0px;}.cls-9{letter-spacing:-.02em;}</style></defs><path class="cls-8" d="m7.34,105.85c-.14-.06-.28.03-.44.02.19-.44.14-.35-.32-.54-.31-.13-.71-.15-.92-.36-.2-.2-.38-.37-.7-.44.26-.18.55-.31.62-.61.02-.09.07-.2-.02-.27-.09-.07-.2,0-.27.07-.19.18-.38.25-.61.06-.08-.07-.19-.09-.28-.01-.09.07-.09.17-.06.27.06.14.18.24.19.45-.38-.1-.73-.18-1.12-.03-.24.09-.32-.16-.29-.33.02-.16.04-.31-.08-.45-.09-.12-.02-.17.12-.22.29-.1.55-.24.78-.46s.48-.08.67.07c.39.3.84.32,1.13,0,.29-.32.52-.69.92-.93.07-.05.15-.18.08-.2-.37-.06-.28-.52-.65-.56,0-.15.54-.23.08-.45-.06-.02-.15-.07-.15-.02-.07.38-.79.23-.75.75.01.08-.42.27-.65.27-.19,0-.11-.24.01-.3.22-.1.24-.29.28-.46.2-.05.07.23.22.17.12-.05.15-.15.05-.27-.09-.09.02-.14.07-.2.06-.1.01-.24-.08-.21-.26.08-.59-.37-.82.1-.11.22-.49.15-.68.05-.26-.13-.54-.14-.8-.27.04-.15.19-.02.26-.09-.11-.16-.26-.06-.39-.06-.11,0-.27.08-.31-.06-.04-.12.06-.22.21-.27.14-.03.26-.15.42-.09.57.2,1.13-.03,1.7-.02.04,0,.08-.05.13-.03.15,0,.42.33.44-.03.01-.18.22-.27.14-.5-.06-.17.18-.39.31-.59.07-.1.34-.18.18-.36-.12-.13-.37-.15-.51-.08-.39.2-.81.14-1.21.2-.13.01-.27-.02-.4,0-.25.03-.29-.06-.25-.24.07-.27-.09-.25-.29-.23-.12.01-.25.03-.35.01-.16-.03-.29-.13-.28-.3.01-.21.19-.12.29-.12.37,0,.77.07.79-.44,0-.06.11-.13.19-.16.31-.15.32-.27-.11-.36.24-.13.44-.09.58-.06.59.12,1.03-.05,1.43-.43.21-.21.42-.33.07-.57-.35-.23-.21-.48.06-.63.35-.2.64-.44.78-.78-.66-.09-1.18.14-1.33.59-.2-.13-.39-.45-.62-.02-.04.07-.2.13-.22.08-.26-.45-.8-.2-1.17-.4-.09-.06-.26-.08-.24-.21.02-.12.18-.07.27-.08.12-.02.24-.03.34.03.14.09.26.03.31-.1.07-.17.21-.29.37-.39.07-.05.15-.09.09-.2-.15-.29-.02-.36.27-.25.39.14.77.01,1.13-.08.13-.03.49-.14.11-.36-.02-.01-.02-.1-.01-.1.44-.08.15-.46.33-.62.27-.24-.05-.31-.13-.3-.26.05-.26-.17-.41-.28-.25.65-.92.5-1.43.59-.4.07-.7-.58-.49-.98.06-.12.24-.22.09-.36-.12-.12-.27-.08-.41-.02-.08.03-.18.07-.22-.03-.14-.32-.47-.37-.79-.45-.13-.03-.32-.1-.24-.22.07-.09,0-.25.28-.3.52-.08,1.04-.2,1.57-.28.14-.02.27-.13.41-.16.09-.02.33-.17.21.15-.07.2.42.37.65.18.38-.32.88-.47,1.25-.81.08-.07.18-.14.12-.23-.07-.12-.18-.05-.27-.01-.08.03-.18.06-.26.02-.33-.17-.7-.28-1.08-.31-.08-.01-.19-.03-.19-.14,0-.12.11-.1.19-.13.26-.08.44-.27.59-.46.07-.09.24-.18.08-.31-.13-.1-.32-.14-.46-.03-.39.31-.82.05-1.06-.08-.33-.18-.55-.09-.7.05-.2.2-.42.2-.65.2-.27-.01-.53-.05-.8.01-.15.03-.35.01-.35-.15-.01-.18.19-.24.35-.2.19.05.37-.01.52-.03.25-.03.65-.02.57-.44-.02-.12.01-.23.18-.21.14.02.13.13.09.22-.02.06-.02.1.06.16.16-.08.31-.25.58-.08.11.07.4-.12.61-.18.07-.02.12-.07.18-.12.18.27.37.17.51,0,.15-.2.4-.21.6-.31.2-.1.06-.3.07-.45.01-.16.01-.28.26-.25.21.02.37-.06.45-.25.08-.21.29-.35.48-.38.54-.09.49-.5.7-.9-.59.23-1.05.1-1.52-.07-.22-.08-.46-.08-.62.14-.14.2-.39.15-.62.23.08-.18.26-.15.35-.28-.2-.18-.47-.24-.7-.13-.2.1.08.24.08.43-.15-.14-.49.16-.48-.25,0-.05-.09.01-.14.03-.37.14-.65-.02-.9-.23-.06-.05-.09-.12-.04-.17.05-.06.14-.08.2-.03.47.33.99.09,1.46.02.45-.06.86-.32,1.34-.52-.25-.13-.49-.13-.4-.44.04-.13-.37-.25-.64-.27-.54-.02-.73-.2-.7-.67.32.16.6.27.59-.23,0-.16.15-.14.26-.08.24.14.52.13.78.17.32.05.62.02.93-.21.31-.22.66-.44,1.1-.48.27-.03.18-.37.35-.45.33-.15.29-.24.02-.4-.06-.03.01-.07.07-.1.26-.13.11-.21-.05-.28-.06-.02-.19-.01-.2-.03-.18-.4-.58-.33-.92-.35-.15-.01-.22.01-.29-.14-.09-.21-.44-.14-.51-.1-.41.23-.7-.08-1.04-.13-.04,0-.05-.1-.09-.22-.09.24-.22.38-.48.38-.31,0-.54.07-.78.31-.2.2-.6-.05-.91-.09-.22-.03-.45-.18-.64-.4.37-.1.6.1.86.21.18.07.32.24.55-.01.21-.23.24-.31-.08-.41-.09-.03-.16-.12-.24-.18-.07-.07-.06-.15,0-.22.06-.08.16-.05.25-.02.05.01.11.06.14.09.09.12.15.29.37.22.06-.02.15-.08.15-.13.01-.18-.21-.2-.37-.32.42-.13.79-.31,1.2-.07.22.13.46.13.67-.03.2-.15.22-.24,0-.47-.38-.39-.9-.5-1.37-.7-.13-.06-.26-.15-.2-.27.06-.13.21-.03.32-.01.37.09.75-.02,1.14.1.28.09.6.09.84.32.06-.16-.13-.2-.12-.31.14-.07.19.05.27.09.08.05.25.06.25.03.02-.43.54-.25.74-.52.22-.3.75-.24,1.1-.5.21-.15.47-.25.58-.54-.39-.12-.86-.07-1.19-.39.29.01.37-.41.75-.32-.32-.08-.33-.51-.73-.47-.02,0-.07-.07-.06-.09.11-.44-.26-.4-.55-.45-.49-.09-.81-.52-1.32-.6-.11-.01-.14-.1-.04-.17.09-.07.18-.24.32-.12.27.22.51.18.78.02.12-.07.15,0,.32.13.11.08.32.18.47,0,.32-.38.58-.82,1.01-1.12.06-.05.09-.13.02-.17-.11-.07-.24-.05-.33.03-.25.24-.54.46-.73.75-.05.08-.06.18-.19.21-.06.01-.13.01-.16-.01-.07-.05-.01-.09.04-.12.07-.05.06-.1.05-.17-.04-.17.21-.36.05-.48-.13-.09-.32.12-.48.14-.22.02-.45-.03-.64.13-.06.06-.24,0-.28-.08-.05-.08-.07-.27-.04-.29.48-.2.05-.44.02-.65-.01-.24-.31-.37-.42-.59-.14.05-.06.2-.16.25-.08.05-.13.18-.25.09-.07-.06-.06-.14.04-.21.06-.05.13-.1.04-.16-.07-.05-.18-.06-.26-.01-.22.13-.45.22-.71.24-.12.01-.27.28-.34.02-.05-.16.05-.4.33-.41.27-.01.53-.08.77-.2.18-.08.46-.12.16-.37-.12-.1.01-.13.09-.15.62-.16,1.11-.59,1.74-.74,0,0,.02.02.02.03-.02.12-.21.2-.13.32.09.13.24-.02.37-.01.26.02.49-.2.78-.09.08.02.25-.12.15-.17-.42-.27.07-.29.13-.33.29-.18.62-.36,1.01-.33.14.01.21-.07.29-.16.12-.13.2-.3.42-.33.05-.01.09-.07.11-.1.01-.08-.07-.09-.14-.12-.39-.08-.38-.23-.06-.38.16-.08.24-.17.15-.32-.09-.18-.25-.16-.41-.08-.12.06-.24.1-.26-.08-.06-.47-.37-.3-.59-.15-.28.18-.55.39-.9.51-.13.05-.2.05-.31-.06-.08-.08-.13-.31-.32-.21-.18.1.18.2.05.36-.19-.06-.41-.32-.55-.22-.28.23-.6.15-.9.22-.09.02-.18.1-.28.05-.06-.03-.05-.1-.01-.15.07-.09.15-.21.27-.17.27.07.47-.12.74-.12-.38-.03-.34-.39-.58-.53-.07-.03-.04-.14.02-.17.26-.13.21-.39.35-.58.06-.12-.08-.38.27-.3.49-.24,1.12-.33,1.33-.91.04-.1.18-.22-.05-.29-.15-.05-.29-.06-.37.13-.11.27-.21.53-.64.43-.07-.01-.19-.01-.2-.05-.13-.27-.34-.2-.57-.13-.09.03-.21.06-.28-.05-.07-.1.01-.16.09-.23.16-.16.31-.27.59-.29.44-.03.82-.3,1.12-.55.15-.14.28-.05.41-.1-.05-.2-.38-.24-.24-.51.05-.09-.15-.07-.21.01-.19.22-.31.15-.48-.03-.26-.28-.68-.25-1.01-.25-.47,0-.47-.4-.75-.54-.02-.01-.08-.21.11-.21.27.01.45-.1.59-.29.11-.14.28-.1.31.03.09.54.58.3.84.29.24-.01.48-.12.74-.15.44-.07.73-.39.98-.69.11-.14-.07-.28-.25-.3-.2-.03-.34-.06-.32-.29.02-.24.2-.3.42-.32.51-.05,1.03-.07,1.47-.32.38-.21.66-.85.61-1.29-.01-.16.15-.31.18-.5.01-.09.07-.17-.01-.29-.19.12-.52.03-.58.35,0,.01-.02.01-.04.02-.21.16-.93-.03-1.05-.29-.12.03-.08.23-.15.21-.65-.15-.87.54-1.43.54-.24,0-.24.27-.51.27s-.47-.05-.71-.13c-.06-.02-.11-.03-.11-.09,0-.09.07-.12.15-.1.12.01.25,0,.35.05.38.16.55-.14.79-.28.09-.06.06-.21-.02-.25-.24-.14-.48-.25-.74-.35-.09-.03-.22,0-.25-.12-.01-.08.01-.2.07-.27.12-.13.15.05.22.07.31.12.62-.02.93.02.12.01.25-.13.22.12-.01.13.15.18.26.16.13-.02.24-.14.24-.27-.01-.22-.06-.43-.34-.52-.02-.01-.06-.01-.08-.02-.2-.06-.4-.14-.46-.35-.01-.02.04-.08.06-.09.24-.02.38.1.54.23.29.23.65.18.98.1.2-.05.28-.22.18-.39-.08-.14-.07-.3.04-.37.28-.15.2-.35.19-.56-.04-.31-.32-.38-.53-.54-.16-.13-.44-.1-.53-.37-.13-.38.08-.35.37-.35.72.01,1.32-.29,1.87-.65.02-.02.24-.29,0-.41-.29-.16.14-.43-.11-.56-.18-.09-.44.02-.61-.17-.19-.2-.31-.38-.07-.59.24-.21.02-.44.05-.66.01-.14-.27-.1-.45-.05-.45.17-.9.35-1.37.47-.39.12-.51.02-.45-.32.02-.17-.07-.24-.19-.32-.06-.05-.19-.07-.12-.18.06-.09.14-.07.24-.06.51.07.99-.09,1.54-.18-.51-.1-.24-.4-.25-.61-.02-.22.22-.15.38-.17.22-.03.39-.16.52-.3.18-.2-.08-.28-.2-.39-.13-.15.06-.2.17-.24.41-.2.46-.43.15-.73-.12-.12-.11-.23.07-.31.41-.17.4-.17.26-.62.86.4,1.4-.28,2.1-.44.09-.46.79-.56.82-1.06,0-.05.07-.1.12-.12.47-.07-.01-.36.14-.5-.2-.09-.34-.44-.61-.18-.12.12-.34-.07-.38.16-.01.06-.09-.02-.14-.05-.07-.02-.08-.05-.04-.12.11-.16.24-.35-.05-.46-.28-.12-.54.03-.73.2-.19.17-.79.35-.87.17-.14-.3-.13-.66-.18-.99.28.01.24-.48.62-.31.05.02.11-.05.09-.1-.01-.07-.02-.14-.11-.16-.12-.03-.22-.07-.34-.1-.11-.02-.15-.09-.14-.18.01-.1.12-.08.18-.06.26.09.05-.3.27-.21.15.06.27.16.42.22.07.02.18-.01.25-.05.33-.13.65-.24,1.03-.17.2.03.4-.01.44-.28.05-.32.42-.39.65-.55.21-.15.31-.3.37-.51.05-.18.09-.36.13-.54.02-.12-.02-.22-.11-.29-.13-.1-.51.14-.44-.25.04-.2-.09-.39.04-.6-.51.17-.84.67-1.45.56-.35.48-.93.3-1.41.37-.04.12.06.16.08.23.05.15-.04.28-.18.33-.18.06-.16-.1-.2-.2-.08-.21-.22-.27-.48-.24-.37.03-.75.1-1.07-.14-.07-.06-.14-.1-.13-.2.01-.06.07-.08.13-.07.55.09.86-.36,1.39-.44-.53-.48-1.33-.5-1.7-1.08.66.09,1.18.61,1.91.48-.11-.22-.47-.21-.46-.5,0-.05-.07-.09-.01-.14.07-.06.14-.03.2.02.12.1.22.18.42.13.2-.06.44-.08.54-.24.13-.21-.24-.24-.27-.43.29-.16.58-.01.85.02.27.03.54.05.8-.01.2-.05.47-.07.42-.37-.01-.08.04-.13.12-.15.44-.14.6-.43.57-.83-.01-.1.07-.22.04-.33-.13-.07-.19.17-.34.03,0-.13.29-.28.12-.37-.12-.07-.42-.18-.58.07-.05.07-.09.1-.18.03-.07-.06-.06-.13.01-.17.11-.08.22-.14.33-.21.16-.1.16-.27.09-.39-.09-.17-.27-.08-.39-.01-.22.13-.47.25-.58.48-.09.18-.22.24-.44.14.04-.17.32-.15.32-.36-.21-.1-.41-.15-.66-.03-.13.06-.27.13-.42.09-.13-.03-.37.02-.35-.16.01-.16.21-.1.33-.08.13.02.27-.06.26-.1-.06-.31.31-.55.14-.86-.08-.15.08-.15.16-.16.38-.03.71-.21,1.04-.33.2-.08.41-.15.46-.43.02-.13.18-.41.52-.29.16.06.27-.09.19-.22-.25-.35.05-.54.21-.81-.35.05-.51-.68-.99-.2-.14-.23-.26-.48-.34-.74-.13-.52.27-.89.45-1.31.09-.23.41-.45-.08-.65-.08-.03-.09-.27-.08-.4.01-.09.16-.1.27-.09.18.02.32-.05.48-.07.58-.09.57-.1.51-.65-.04-.3.28-.37.53-.51-.55,0-.64-.4-.94-.81.53.25.68.08.77-.25.04-.17.24-.24.4-.29.2-.05.29-.15.19-.31-.16-.28.11-.43.25-.46.34-.09.21-.31.22-.47,0-.12-.12-.21-.25-.1-.33.27-.73.18-1.11.23-.15.02-.42-.09-.44.21,0,.01-.08.06-.11.05-.05-.03-.09-.07-.11-.12-.04-.29.39-.47.24-.82-.01-.03.37.01.57-.01,0,.09.47-.14.18.21-.07.08.19.1.29.09.21,0,.41-.09.32-.3-.06-.12-.02-.13.05-.16.35-.18.18-.32-.06-.45-.2-.1-.24-.13-.04-.32.22-.22-.02-.5-.24-.68-.16-.15-.49-.35-.38-.47.18-.2.39.12.58.2.16.07.33.12.52.12.25,0,.44-.16.44-.31.01-.17-.08-.4-.39-.4-.09,0-.24.06-.26-.08-.02-.08.07-.15.14-.18.22-.12.19-.33.22-.5.05-.21.16-.35.38-.4.15-.03.42-.05.44.09.01.22.32.38.12.63-.2.23-.26.4.2.31.11-.02.26.03.22.18-.05.15-.11.31-.33.32-.09.01-.28-.06-.26-.03.21.29-.37.32-.21.58.01.01.02.02.02.03-.27.45-.16.82.39,1.11-.44-.05-.54.15-.48.39.06.24-.07.58.46.65.37.05.48.44.47.8-.19.02-.31-.1-.45-.15-.37-.14-.57-.05-.44.27.21.51-.12.97-.06,1.45.02.2.14.37.16.5.06.37.47.52.52.85.02.14.13.23.27.29.27.1.33.18.13.46-.04.27-.2.16-.44-.07-.06-.06-.11-.13-.18-.17-.08-.06-.19-.15-.27-.06-.08.08-.06.18.04.29.29.31.52.69.87.96.04.02.07.06.09.09.08.14.25.31.08.43-.22.16-.25-.16-.4-.21.04.29.09.56-.4.29-.19-.1-.55.18-.52.4.02.16.05.39.16.44.44.21.4.56.41.89.04.51.58.41.84.63.09.08.39-.01.28.21-.07.15-.27.14-.42.02-.19-.13-.34-.16-.45.09-.05.12-.18.12-.29.14-.26.03-.47.2-.49.4-.06.33-.06.67.13,1,.44.75,1.15,1.31,1.63,2.05.22.36.53.73.95.97.13.07.38.18.18.39-.15.16-.31.41-.6.13-.02-.02-.11-.05-.11-.03-.28.37-.45,0-.65-.09-.31-.14-.99,0-1.11.29-.11.27,0,.61.21.74.37.22.31.55.4.83.06.18.24.3.27.48.01.06.2.1.33.06.16-.06.01-.2.08-.31.42.28.84.55,1.26.84-.11.12-.4.06-.32.27.06.15.22.24.42.27.34.03.71-.1.99.17.16.16.48.22.28.56-.06.12.29.31.32.59-.45-.16-.68.55-1.18.16-.11.14.09.24-.02.35-.32.31-.09.52.18.73.31.24.6.48.99.63.2.07.33.03.51-.02.12-.03.22-.16.29.09.06.21.05.43-.15.39-.44-.07-.64.23-.86.39-.28.21-.52.2-.85.15.58.23.37.74.53,1.12.07.17.04.45-.27.56-.12.05-.11.59.02.71.06.06.13.1.2.15-.28.24-.33.7-.91.61.2.15.35.37.6.14.12-.12.15-.02.18.05.11.29.34.23.59.2.34-.05.68-.07,1.03-.12.16-.02.31-.07.28-.28-.02-.25-.16-.13-.29-.13-.09,0-.24-.01-.29-.07-.18-.21-.41-.23-.67-.21-.12.01-.21-.03-.21-.15s.12-.03.16-.06c.39-.23.72-.14,1.08.09.31.18.95.07,1.17-.22.14-.2.51-.31.38-.65-.01-.03.12-.14.19-.15.39-.09.59-.38.85-.62.2-.18.2-.28.11-.54-.14-.43-.4-.39-.73-.32-.45.1-.88.25-1.34.06-.09-.03-.29.07-.25-.13.02-.13.2-.22.31-.17.46.17.59-.21.98-.32-.32-.12-.57-.09-.75-.25.2-.15.57-.14.65-.21.28-.23.58-.27.87-.2.48.12.81-.16,1.18-.32.18-.08.06-.21-.05-.29-.25-.17-.38-.37-.33-.66.02-.16-.11-.21-.25-.21-.29-.01-.46-.1-.46-.41,0-.25-.05-.22-.4-.13-.19.05-.45-.08-.65-.18-.37-.2-.77-.35-1.07-.62-.06-.06-.14-.08-.13-.17.01-.07.05-.12.15-.08.73.21,1.33-.07,1.92-.45.05-.14-.37-.12-.18-.31.14-.15.33-.14.49-.07.44.21.75.2,1.11-.18.25-.27.72-.27,1.21-.31-.28-.14-.07-.52-.66-.45.28-.14.41-.2.62-.31-.53.01-.97-.08-1.35.24-.27.23-.54.14-.73-.14-.07-.1-.12-.25-.26-.25-.62.03-.94-.55-1.53-.56-.07,0-.2,0-.2-.12s.13-.12.2-.12c.62.02,1.12-.36,1.72-.38.12,0,.13-.08.16-.15.04-.08.12-.21.19-.21.34,0,.44-.4.8-.37.07.01.24-.08.02-.16-.11-.05-.04-.08.02-.09.53-.12.24-.31.06-.48-.12-.12-.2-.24-.21-.4-.2.06-.12.23-.24.3-.15-.06-.05-.18-.09-.24-.16-.22-.11-.55-.64-.56-.74-.01-1.14-.58-1.53-1.08.16-.1.22,0,.29.06.4.3.84.3,1.3.12.47-.18.59-.58.72-.93.06-.16-.2-.33-.47-.3-.17.02-.33.14-.57.02.31-.14.62-.39.62-.58.01-.41.41-.52.58-.81-.25-.07-.62-.07-.18-.43.25-.21.02-.48-.42-.52-.34-.02-.68-.03-1.01-.14-.27-.09-.24-.29-.21-.43.04-.23.22-.03.34-.05.38-.01.75-.01,1.14.07.29.07.78-.54.64-.77-.04-.06-.18-.07-.27-.1-.54-.14-.71-.6-.37-1,.22-.27.45-.48.87-.43.29.03.52-.05.65-.36.14-.35.59-.45.92-.6.31-.15.19-.35.14-.46-.06-.16-.24-.07-.35.02-.07.05-.14.09-.22.12-.13.05-.27.08-.33-.09-.06-.15.04-.22.19-.25.06-.01.15.01.18-.08-.28-.15-.53-.08-.67.14-.13.18-.32.43-.52.46-.57.09-.95.43-1.43.65-.51.23-.98.22-1.51.13.08-.22.28-.09.39-.16.04-.21-.24-.14-.29-.31.32,0,.16-.31.24-.35.48-.3-.34-.28-.11-.5.13-.12.26.07.44,0-.05-.18-.31-.21-.38-.36.08-.12.16-.07.25-.05.41.13.82.14,1.2-.08.06-.03.14-.03.21-.06.12-.03.26-.07.32.06.07.17-.14.1-.22.16-.06.03-.13.07-.21.12.54.07.97-.17,1.41-.31.17-.05.42-.12.4-.37,0-.05.05-.12.08-.13.64-.1.64-.69.94-1.04.17-.18-.13-.32-.29-.35-.4-.07-.8-.08-.98-.51-.05-.1-.22-.07-.33-.02-.18.07-.33.03-.47-.05-.22-.14-.4-.2-.49.1-.01.05-.06.06-.11.05-.06-.02-.11-.05-.11-.12,0-.14.13-.18.24-.31-.49.01-.59-.41-.91-.6-.09-.05-.07-.17-.01-.25.11-.16.07-.27-.11-.37-.06-.03-.15-.12-.09-.21.07-.12.18-.05.28-.03.49.08.94.36,1.47.25.06-.01.12-.01.14-.07-.05-.18-.42-.12-.39-.32.05-.25.35-.12.53-.18.12-.05.26-.08.38-.14.19-.08.35-.16.05-.32-.13-.07-.28-.22-.2-.36.11-.17.25.01.39.03.34.07.61-.14.84-.27.45-.29.62-.83,1.13-1.11.29-.16.26-.53.31-.8.01-.07-.4-.13-.62-.15-.98-.1-1.98-.14-2.89-.54-.13-.06-.33-.12-.26-.28.11-.22.27-.02.37.03.39.21.77.16,1.1-.03.2-.13.59-.02.61-.38,0-.07.16-.03.24,0,.34.15.57.05.74-.23.22-.37.68-.43,1.04-.65.14-.08.33-.12.31-.35-.02-.21.07-.38-.25-.52-.32-.14-.58-.31-.94-.2-.01,0-.04.01-.05,0-.26-.25-.6-.4-.94-.6.49,0,.92-.03,1.03-.63.16.38.32.48.58.2.13-.15.29-.29.4-.45.08-.13.09-.3-.01-.41-.11-.12-.25-.01-.38.02-.07.02-.14.05-.2.08-.34.16-.64.12-.86-.17-.25-.33-.52-.29-.84-.09-.2.12-.38.3-.72.25.35-.33.82-.46,1.12-.78.09-.09.2,0,.28.1.33.45.33.46.79.15.15-.1.27-.23.28.07.28-.07.59-.05.8-.27.04-.03.04-.12.08-.13.2-.08.29-.28.15-.38-.2-.15-.18.17-.32.2-.47-.2-.14-.54-.16-.82-.06-.63-.18-.59-.68-.47-.28.07-.55.06-.84.02-.11-.01-.22-.03-.22-.15-.01-.12.08-.15.2-.18.29-.09.87-.1.85-.17-.11-.35.33-.43.35-.69.01-.09.17-.18.32-.35-.28.1-.48.27-.68.12-.18-.14.11-.25.07-.4-.27-.09-.57-.06-.84-.07-.09,0-.24-.02-.21-.15.02-.09.13-.1.22-.09.45.06.88.05,1.33,0,.37-.03.61-.13.61-.53,0-.21.15-.43.25-.63.04-.08.07-.16,0-.22-.07-.07-.13.02-.19.05-.25.09-.51.23-.55-.18-.01-.13-.2-.14-.34-.13-.48.02-.9-.09-1.26-.39-.16-.13-.29-.27-.18-.44.11-.17.24-.39.53-.36.29.02.59.09.84.25.24.16.46.15.67-.07-.33-.23-.64-.37-1.07-.23-.31.09-.41-.01-.49-.48.29.47.55.06.82.08.46.05.84-.16,1.24-.29.15-.05.22-.15.14-.23-.15-.16-.26-.28-.08-.5.07-.08-.07-.09-.16-.12-.49-.15-.57-.38-.21-.77-.13-.02-.25-.05-.38-.08-.16-.05-.19-.18-.09-.24.21-.13.26-.39.55-.45.18-.03.31-.14.12-.31-.13-.12-.46-.21-.22-.4.15-.13.46-.07.61.16.01.02.07.03.13.07.02-.13.02-.23.05-.32.04-.13.13-.17.27-.13.12.03.19.07.16.23-.08.66.14,1.22.67,1.68.19.16.09.31.01.47-.21.39-.09.97.31,1.2.26.15.2.24.05.4-.45.44-.37.66.31.82-.25.24-.44.51-.8.61-.18.05-.29.15-.09.27.35.18.42.62.85.73.04.01.06.05.09.08-.31.27,0,.59-.11.88-.09.27-.21.14-.35.05-.15-.12-.25-.4-.46-.31-.19.08-.05.33-.06.52-.01.17-.05.39-.16.52-.26.28-.09.47.11.67.25.23.28.59.6.77-.2.4.19.48.44.66.07.06.09.12.04.21-.14.25-.01.44.32.38.22-.03.33.06.46.17.17.16.34.32.64.25.06-.01.11.02.09.05-.18.27,0,.53.01.78,0,.08-.14.18-.24.27-.04.02-.14.02-.16-.01-.07-.07.07-.07.07-.1-.05-.28-.08-.56-.41-.69-.18-.07-.29-.16-.33-.4-.24.33.08.53.06.77-.02.29-.09.44-.4.53-.22.07-.45.13-.66.23-.42.2-.58.51-.35.9.35.62.73,1.21,1.51,1.5-.04,0-.07.01-.11.01-.27.08-.49-.06-.74-.1-.45-.09-.73.07-.74.47-.01.24.02.47.05.78.28-.27.38-.21.4.1.05.51.28.96.79,1.26.21.13.11.31,0,.4-.14.13-.18.28-.07.35.4.24.58.77,1.19.77.15,0,.14.2.27.28.34.21.73.21,1.1.29.05.01.14,0,.16-.03q.19-.28.55-.17c.09.02.2.07.31.01.06-.07,0-.13-.04-.18-.06-.08-.11-.18.01-.24.11-.06.22-.03.32.07.16.21.28.44.57.58-.45,0-.79.25-1.19.32-.18.03-.34,0-.45.23-.07.14-.12.18.07.3-.33-.01-.52-.16-.73-.28-.2-.1-.35-.13-.53-.01-.45.28-.93.4-1.5.22.15.39.55.66.45,1.09-.04.17.15.17.29.15.2-.03.55-.05.68.01.27.13.53.25.72.51.16.23,0,.27-.15.27-.2-.01-.39.02-.58.05-.34.06-.35.33-.31.62.06.35.37.35.52.52.19.21.37.43.61.59.37.23.71.46,1.21.21.2-.1.44.07.53.27.11.22-.16.23-.28.28-.33.14-.67.1-1.03-.06.28.3-.19.45-.13.7,0,.01-.06.03-.09.05-.18-.39-.61.07-.82-.27-.06.68.49,1.26,1.38,1.16.07-.01.14-.02.21-.05.08-.03.12-.3.26-.05.08.14,0,.31-.15.31-.34.01-.7.17-1.03,0-.08-.05-.14-.03-.2.02-.06.06-.06.15.01.17.22.07.35.52.68.13.07-.08.22-.1.31.01.09.12.08.22-.08.29-.07.03-.12.13-.18.12-.58-.05-.9.53-1.52.46.26.31.4.68.92.53.01,0,.04-.01.05,0,.24.09.45.29.74.22.26-.07.52-.09.8-.06-.2.32-.55.28-.84.35-.25.07-.27.17-.19.35.14.32.53.37.79.56.07.06.13-.06.18-.13.16-.21.42-.16.65-.15.14.01.21.14.04.21-.25.1-.2.25-.14.44.13.36-.12.62-.53.52-.84-.21-1.7-.37-2.49-.81-.01.21.35.54-.24.55.47.25.78.69,1.35.81.19.03.37.1.54.18.11.05.29.07.2.25-.08.15-.21.12-.34.09-.51-.09-1.01-.16-1.52-.29-.2-.05-.27-.01-.34.13-.08.15-.05.43.06.59.26.39.72.56,1.13.67.57.14.97.48,1.48.69-.14.17-.44-.03-.49.18-.12.4.33.4.64.6-.29.02-.49.03-.7.05-.25.01-.37.16-.37.33,0,.18.2.39-.08.54-.01,0,.01.09.04.1.42.21.67.61,1.15.78.42.15.81.4,1.19.65.11.07.31.18.16.36-.12.14-.29.21-.51.17-.27-.03-.54-.07-.81-.1-.02.16.11.13.18.15.24.12.37.23.02.37-.32.13-.19.21.04.29.65.22,1.26.5,1.96.56.21.02.39.05.25.32-.09.2.02.36.29.44-.42.23-.84.39-1.34.36.27.12.11.39.32.54-.09.02-.18.08-.25.08-.42-.02-.42.21-.28.43.22.36-.08.43-.32.5-.22.06-.51.07-.67-.1-.13-.13-.22-.02-.32-.01-.16.01-.02.12-.02.17.06.71.32,1,1.23,1.19.57.12,1.15.14,1.66-.23.04-.02.09-.07.11-.06.34.18.54.14.61-.24.01-.07.13-.01.19.02.28.17.54.03.74-.09.22-.14.44-.28.7-.36.11-.03.14-.09.16-.21.08-.48.18-.95.79-1.16.21-.08.38-.24.28-.51-.09-.25-.27-.33-.54-.29-.32.06-.6-.02-.99-.09.31-.13.54-.23.85-.36-.35-.1-.65.02-.93-.1.12-.14.25-.02.35-.06.32-.09.79.06.81-.47.01-.16.29-.24.35-.44-.18-.08-.27.02-.39.08-.16.09-.27-.01-.34-.1-.13-.14.07-.14.14-.21.42-.41.82-.83.88-1.42.01-.07.04-.16.09-.22.21-.27.04-.44-.15-.62-.07-.06-.39-.06-.11-.25.05-.03-.12-.09-.2-.07-.25.05-.55.14-.71-.07-.22-.3-.31-.66-.35-1.03-.01-.1.14-.15.18-.08.12.27.4.18.6.24.44.12.66-.1.51-.5-.06-.14-.09-.28-.06-.45.13.07.04.24.21.3,0-.25.15-.37.41-.46.75-.28.91-.82.38-1.38-.13-.14-.39-.2-.59-.29-.24-.12-.41-.25-.14-.48.18-.15.02-.48.49-.53-.38-.12-.46-.38-.7-.5-.2-.1-.04-.21.08-.25.29-.13.21-.21-.02-.29-.32-.12-.27-.29-.06-.44.09-.07.28-.06.26-.22-.02-.15-.21-.12-.32-.17-.04-.02-.07-.03-.14-.07.22-.15.41-.06.61-.02.09.01.2.1.27-.02.05-.09,0-.18-.07-.25-.02-.03-.06-.07-.09-.08-.64-.21-.37-.36.02-.55.61-.3.77-.81.7-1.39-.01-.1-.02-.23.08-.3.12-.08.25-.03.38.03.4.18.58.5.44.88-.08.23-.05.43.02.66.12.36.2.74.15,1.12-.02.17-.02.36.13.48.33.28.49.58.24.98-.07.12-.04.29,0,.43.04.1.15.01.24.01.27-.02.14-.21.16-.35.01-.05.05-.09.11-.17.17.2.18.37.06.53-.16.24-.14.48-.07.74.05.17.02.29-.06.47-.13.28.12.56.28.82.16.25.07.8-.14,1.03-.16.18-.34.35-.27.69.06.28.2.75-.4.97-.29.12-.39.58-.38.88.01.24-.01.46-.06.69-.02.14-.05.28.09.36.18.12.08.17-.02.28-.19.2-.09.61.14.75q.31.17.45.4c.12-.1-.01-.2-.02-.29-.01-.15.02-.31.24-.32.17,0,.41-.13.48.14.06.24.29.39.4.61.13.27.45.08.72.13-.54.16-.26,1.06-1.25.88.28.24.32.43.16.66-.06.09-.09.25.04.33.29.18.31.47.37.74.04.14.06.32.19.35.44.05.45.35.52.62.04.16.12.32.26.41.65.45.45.97.16,1.49-.08.15-.18.25.05.36.12.05.2.15.34-.01.13-.14.05-.18-.05-.28-.04-.03-.06-.09-.09-.16.29-.05.47-.01.62.24.11.17.39.21.31.54-.07.32-.27.44-.52.56-.08.05-.29-.05-.26.14.01.07.13.14.21.18.16.1.2-.03.26-.12.01-.01.05-.01.11-.03.07.62.6.53,1.11.54-.32.21-1.24.13-1.63-.18-.44-.35-1.11-.25-1.45-.73-.16.21.04.37-.09.54-.16-.27-.45-.41-.53-.74-.19.15-.05.5-.45.37-.09-.03-.08.32-.08.5.01.15.07.3.04.45.28.08.22-.48.57-.2.15.14.44.13.48.41.02.17.29.25.47.33.97.41,1.9.92,2.91,1.23.07.02.15.05.2.09.08.07.26.09.22.22-.05.17-.24.07-.34.06-.29-.02-.58-.1-.88-.06-.37.06-.51.15-.25.45.05.05.07.12.13.21-.34-.16-.67-.17-.94-.33-.19-.12-.4.01-.4.17-.01.21-.01.3-.25.43-.21.1-.38.08-.65.1.45.52.39,1.28,1.15,1.58.02.01.04.03.04.06.02.78.12.93.9,1.21.18.07.24.2.37.4.01-.35.04-.61.05-.88.54.31.59,1.06,1.39,1.07.06-.12-.14-.3.09-.4.14.01.12.14.13.21.04.29.12.5.51.28.06-.03.11,0,.14.06.06.1.09.21.01.3-.11.12-.18.23-.15.39.02.17.02.36-.31.25-.22-.07-.22.1-.18.25.04.09-.01.16-.11.2-.09.03-.12-.06-.16-.1-.32-.27-.49-.67-.99-.76,0,0-.04.02-.02.03.06.17.2.39.02.52-.19.13-.44.01-.64-.08-.21-.09-.4-.22-.6-.32-.33.4-.12.7.19,1,.06.06.09.15.09.22-.02.58.46.86.84,1.22.12.12.27.15.45.16.33.03.41.2.31.46-.06.14,0,.25.2.28.12.01.29.06.24.17-.07.14-.18-.01-.27-.05-.19-.05-.45-.13-.55.09-.18.33-.42.25-.71.16-.12-.05-.24-.13-.38-.09.11.1.08.15-.04.25-.11.1-.2.25-.22.38-.02.14.15.07.25.09.18.06.32.38.57.06.04-.05.15.09.22.16.16.15.24.33.22.54-.18.07-.14-.27-.33-.14.01.58.64.54.98.8.06.03.13.06.18.09-.34.39-.72.01-1.08.05-.2.01-.29.09-.46.14.15.14.38.08.49.23-.08.12-.24-.07-.34.1.48-.09.4.44.77.52.12.02-.04.33-.06.35-.25.13-.18.33-.2.51-.01.23-.14.33-.4.28l-.02-.02s-.05-.03-.07-.06h-.01c-.09-.02-.16.02-.19.1-.01.02-.01.05,0,.07-.08.08-.12.16,0,.23.24.14.37.3.29.56-.01.02.05.1.05.1.42-.1.59.4.87.36.51-.09.44.51.84.45.02.27.06.53-.07.77-.12.21-.28.05-.44.02-.19-.03-.41-.09-.55.01-.34.28-.42.74-.19,1.07.08.13.01.29.12.35.08.05.28.01.37-.05.19-.14-.14-.15-.12-.28.31-.07.4.23.61.3.18.06.33.16.54.12.19-.03.39-.01.55.12.18.14.58.27.05.48-.07.02-.11.13-.14.17.28.23.82.16.86.65,0,.03.07.09.12.1.25.05.42.17.55.38-.08.02-.16.07-.26.08-.25.01-.67.02-.71.14-.09.31-.34.58-.37.91,0,.05-.05.14-.01.14.42.06.18.62.62.66.08,0,.06.08.04.13-.05.09-.14.13-.25.15-.13.02-.11-.05-.08-.12.04-.15-.09-.14-.2-.14-.08,0-.2-.01-.19.1.04.25-.17.47-.11.75.04.15.21.36-.02.55-.08.07.24.14.35.22-.08.17-.27.06-.41.12.18.22.22.56.68.39.15-.06.67.48.66.65,0,.15-.07.2-.22.1-.16-.12-.35-.3-.41.08-.01.08-.11.03-.19.02-.34-.08-.64-.24-.82-.51-.12-.16-.25-.08-.34-.06-.24.05.04.15,0,.16-.14.06-.09.37-.38.21-.12-.07-.25-.06-.33.03-.11.13.07.17.12.25.15.28.73.37.44.83,0,.01.08.07.13.09.54.29,1.12.55,1.63.89.32.21.62.46.93.69-.39-.01-.77.02-1.18-.15.09.43.39.69.6.99.06.09.05.12.04.2-.05.3-.45.15-.46.22-.04.17,0,.18-.26.24-.41.09-.66-.09-.98-.2.08.16.25.22.09.43-.12.15-.08.36.2.48.12.05.42.18.16.45.31,0,.53-.14.79-.2.18-.05.24-.03.21.17-.05.37.32.76.73.81.22.02.45.03.13.27.24.24.02.61.29.83.18.15.14-.09.2-.15.04-.02-.13-.1-.01-.15.05-.02.19.03.2.07,0,.16.32.23.19.38s-.31.33-.61.2c-.27-.13-.59-.1-.87-.23-.26-.12-.28.13-.34.25-.05.1.01.27-.21.09-.13-.09-.21-.13-.14-.27.02-.03-.02-.14-.04-.14-.15,0-.31-.01-.46.02-.07.01-.14.1-.07.2.12.17.46.4-.13.37.15.1-.26.23.02.32.18.06.12.23.2.33.28.39.8.35,1.19.54.14.07.31.09.44.2.37.28.74.47,1.28.32.19-.05.47.12.68.24.21.13.39.16.61.06.18-.08.41-.07.46.1.05.14-.19.23-.34.25-.31.05-.51.18-.66.41-.09.15-.25.21-.41.1q-.66-.4-1.5-.5c.42.09.64.3.51.7-.08.25.22.02.26.16-.12.21-.35.16-.57.18-.11.01-.21-.01-.26.12-.04.1.05.14.13.18.07.03.14.08.11.15-.33.66.26.23.45.3-.13.1-.26.21-.42.33.37.21.53.44.37.83-.06.14,0,.48.29.61.13.06.31.13.28.28-.02.14-.24.08-.34.16-.04.02-.08.03-.12.06-.21.13-.59.15-.48.47.09.28.35-.07.53.05.02.01.05.03.07.05-.04.08-.13.06-.19.06-.13,0-.21.08-.2.17.01.12.15.12.26.1.11-.01.2-.07.31-.08.2-.02.37.09.46.21.11.14-.11.16-.19.24-.2.17-.09.3.13.4.26.1.39.23.02.41.07.02.13.03.18.06.12.03.29.01.31.15.01.08-.02.25-.21.1-.05-.03-.08-.08-.12-.12-.21-.2-.25.14-.39.12-.57-.08-.79.38-1.13.62-.38.25.06.48.25.65.28.22.52.37.06.62-.14.08-.11.16.05.23.28.12.66.12.67.53,0,.03.22.08.35.1.42.12.53.48.21.77-.16.15-.39.2-.59.27-.08.03-.2.05-.27-.08-.09-.17-.55-.32-.7-.2-.19.16-.26.05-.4-.03-.21-.13-.47-.21-.49.16-.01.14-.13.21-.19.31-.04.06-.07.12-.11.17.47.17-.08.61.27.82.05.02.15.05.12-.02-.06-.12-.09-.18.08-.14.13.03.16.16.08.27-.25.27-.06.33.2.45.21.09.37.3.53.46.24.23.53.27.77.17.25-.1.32-.08.44.1.08.13.28.05.42.13-.05.02-.08.06-.12.07-.15.03-.38.02-.41.18-.05.18.18.25.31.36.25.21.62.28.79.59.02.05.32.22.52.23.24.01.22.36.51.28.01.03.04.08.02.1-.01.02-.07.06-.11.06-.11,0-.21-.03-.31-.02-.21.02-.55-.17-.57.27,0,.05-.34.06-.46-.13-.05-.08-.09-.17-.11-.25-.05-.39-.12-.75-.67-.81-.07-.01-.02-.12-.04-.18-.05-.29-.39-.43-.64-.23-.15.12-.24-.02-.35.01-.08-.27-.42-.2-.6-.36-.2-.18-.32-.03-.37.14-.13.41-.06.44.46.78.19.13.44.32.46.61.02.28.29.37.54.54.02-.17-.18-.17-.11-.31.24.05.52.02.6.32,0,.02.05.05.07.05.37-.06.38.12.46.38.09.3.06.4-.25.54-.38.17-.39-.08-.47-.27-.19-.41-.58-.6-1.04-.73-.12-.03-.24-.1-.37-.16-.05.12.11.2.04.35-.16.36,0,.59.42.7.24.06.46.09.19.37-.06.06.01.2.02.3.12.01.14-.28.33-.05.31.39.45.37.68-.1.18.28-.04.67.33.83-.42.56-.58-.36-1.07-.15-.31.13-.65-.44-1.1-.55.25.21.13.48.21.71-.71-.05-1.27-.33-1.81-.67-.13-.08-.32-.1-.08-.27.12-.08.02-.12-.07-.15-.2-.08-.53-.08-.39-.43.02-.06-.11-.09-.21-.09-.15,0-.32-.03-.51-.07.04.13.14.28.2.31.15.09.2.17.16.32-.05.21-.25.07-.42.16.52.12.64.45.72.84.06.25.28.48.42.73.04.07.09.15.09.22-.02.29.12.47.41.59.06.02.15.09.15.14-.02.27.11.35.38.32.04,0,.09.05.09.06-.09.33.19.37.42.45.06.02.09.09.14.14-.31.13-.66-.15-.94.1-.02.01-.05.02-.06.03-.06-.02-.13-.06-.19-.08h-.05s.02.01.02.01c-.19.15-.33.33-.66.32-.21-.01-.27.37-.55.45.14.08.38-.06.46.21.04.13.32-.07.51-.01.13.03.28-.05.34.16.06.21.26.38.06.6-.02.03-.06.07-.09.08-.27.08-1.23-.27-1.38-.5-.01-.02-.01-.06-.02-.08-.09-.17-.26-.27-.46-.3-.04-.01-.13.06-.13.09-.02.17.2.21.26.36-.11.12-.27.15-.4.09-.27-.1-.42.05-.49.21-.12.24-.28.35-.55.44-.31.1.06.38-.06.58.42.05.37.43.37.6-.01.52.53.46.75.7.19-.15.14.17.29.12.11-.21-.15-.29-.2-.48.25.2.62.03.87.3-.18.06-.39-.14-.45.06-.07.18-.29.39-.02.61.07.06.12.15.19.22s.09.15-.01.2c-.07.03-.2.07-.22-.03-.05-.21-.09-.18-.21-.03-.16.2-.4.3-.7.46.08-.43-.34-.59-.41-.9-.08-.35-.28-.66-.25-1.04.01-.16-.33-.2-.33-.38-.02-.4-.55-.53-.58-.94-.01-.13-.86-.23-1-.13-.04.02-.08.08-.07.09.26.31-.15.36-.26.53-.07.12-.14.28-.02.32.61.23.14.45.01.68.33.13.72.06,1.03.3-.09.1-.38.01-.27.25.05.12-.05.14-.15.13-.12,0-.27-.01-.24.15.02.12.14.13.28.13.13,0,.21-.03.34-.09.01.3-.12.5-.48.56.37.05.62.12.24.44-.15.13.08.2.09.33-.22-.02-.44-.05-.66-.07-.21-.02-.44.23-.35.41.08.17-.06.3-.14.36-.12.07-.34-.05-.37-.13-.08-.27-.31-.45-.38-.71-.02-.07-.06-.13.05-.15.05-.01.09-.02.07-.07-.05-.1-.13-.17-.27-.18-.01.4-.61-.29-.54.23.01.13-.01.27.11.37.09.08.08.18-.02.24-.21.09-.16.21-.11.36.15.43.35.84.82,1.09-.35.1-.61-.1-.8-.6-.37.14-.4.18-.24.47.07.13.15.22-.02.33-.13.09-.09.21.02.31.26.22.25.31.08.62-.08.16.08.36-.02.54-.12.21-.2.44-.31.65-.21.44.04.92-.09,1.38.35.18-.06.29-.05.43.02.22.11.44.08.67-.02.2-.33.15-.35.37.38-.13.45.08.39.33-.05.21.26.47-.13.62.18.03.21.15.21.3.01.59.16,1.18.05,1.77-.05.21.04.5.12.71.07.24.14.4-.02.66-.06.1.05.36.06.55.04.35.11.67-.11.98-.12.18.2.14.21.32.04.88.55,1.66.58,2.55.01.25.18.39.52.38-.44.05-.74.29-1.12.38-.09.02-.27.01-.27.1.01.45-.2.23-.44.15-.27-.09-.53-.31-.87.01-.24.22-1.04-.23-1.07-.56-.01-.1,0-.21,0-.4-.24.24-.45.28-.71.2-.09-.03-.22-.06-.32.06-.15.18-.27.01-.37-.06-.11-.07-.18-.25-.08-.31.46-.25.28-.71.47-1.06.12-.23.21-.51.32-.75.22-.53.28-1.08.33-1.63.09-1.08.13-2.18.07-3.27-.02-.52.02-1.04.06-1.54.05-.48-.14-.92-.27-1.38-.09-.32,0-.66-.08-.99-.06-.22.37-.17.38-.39-.12-.07-.29-.06-.37-.23.39.02.29-.2.25-.39-.13-.46,0-.91.06-1.36-.11-.01-.26.05-.4-.08.11-.1.45-.12.19-.37-.05-.05.07-.28.15-.4.37-.59.15-1.12-.22-1.61-.14-.18-.41,0-.64-.05-.13-.02-.07.21-.02.29.18.32-.04.47-.31.52-.54.12-1.11.1-1.66.08-.29-.01-.45.2-.71.36.01-.3.13-.47.33-.62.08-.07.19-.18.08-.28-.09-.08-.26-.01-.31.08-.2.31-.55.43-.85.63-.24.16-.27.09-.48-.07-.18-.13-.39-.27-.61-.31-.15-.03-.32.05-.28.27,0,.02.05.36-.28.28-.37-.09-.52-.31-.51-.61,0-.12.22-.12.34-.12.6.02,1.2-.06,1.79.06.21.05.42-.03.59-.15.26-.17.24-.3-.11-.54.25-.01.46-.21.6.1.04.07.12.08.19.05.09-.05.16-.13.18-.22.01-.08-.06-.12-.13-.13-.35-.02-.75-.22-.99.23-.09.17-.25.09-.29-.02-.15-.43-.42-.2-.66-.1-.11.03-.16.17-.29.16-.09-.01-.26.08-.15-.16.09-.23-.21-.27-.4-.31-.22-.06-.22-.05-.18-.24.01-.03-.02-.09-.04-.09-.51-.14-.08-.3-.06-.48.02-.22.08-.36.28-.46.01-.01-.01-.07-.02-.1-.01-.01-.07-.02-.07-.02-.14.15-.44.16-.48.37-.09.36-.28.4-.51.12-.26-.33-.52-.03-.74,0-.27.05-.57-.05-.84.07-.07.03-.17-.09-.04-.15.28-.13.09-.3.05-.45-.07-.24-.27-.09-.4-.08-.42.05-.59-.27-.79-.46-.18-.17-.99-.56-1.28-.46.35.07.38.33.49.53.2.35.44.66.75.96.2.18.44.4.57.63.15.25.25.5.6.58.12.03.05.13.04.2-.01.17-.11.23-.31.24.66.44,1.31.88,1.97,1.31-.02.03-.05.08-.06.12-.42-.39-1.13-.2-1.51-.71-.09-.14-.28-.25-.46-.3-.7-.17-.92-.76-1.32-1.18-.11-.1-.18-.23-.28-.35-.26-.29-.44-.27-.6.06.04.09.15.08.22.12.11.06.29.07.26.23-.05.18-.19.02-.29.03-.14.01-.26.03-.17.18.15.27.22.45-.04.75-.19.22,0,.61-.07.93-.08.36.13.69.13,1.05.01.23.05.46-.02.7-.04.13-.05.25.06.38.05.06.09.15.09.22-.06.77.06,1.54.09,2.32.02.56.13,1.13.22,1.69.02.12.05.23.05.36-.05.97.18,1.92.26,2.88.02.29.32.45.33.78.02.54.21,1.07.33,1.61.01.03-.05.09-.05.09.58.27.29.89.67,1.24.21.2.51.36.41.73-.04.13.29.21.47.21.57-.01,1.11,0,1.67.08.38.06.79-.05,1.18-.08.46-.05.88.05,1.35.06-.09.14-.29.05-.37.2.19.06.41-.06.6.08-.15.28-.45.13-.68.16.35.29.41.32.81.18.26-.09.52.02.82-.05-.24-.2-.61-.08-.75-.36-.06-.13-.11-.22.07-.23.33-.02.7-.2.93.22.13.23.02.94-.21.97-.25.02-.51-.03-.71-.16-.29-.18-.54-.15-.87-.05-.41.13-.82.41-1.31.14-.07-.05-.25,0-.34.06-.46.24-.93.14-1.39.07-.11-.01-.26-.07-.24-.2.02-.1.15-.09.26-.1.22-.02.44-.03.66-.1-.4-.03-.8-.07-1.2-.1-.09-.01-.19,0-.22.09-.07.16.13.22.18.35.05.13.4,0,.26.27-.12.21-.25.15-.44.07-.11-.05-.29-.09-.35.16-.05.15-.21.32-.55.24-.26-.07-.6.08-.87-.12-.02.12-.04.2-.22.22-.35.05-.62.02-.93-.21-.27-.21-.7-.3-1.1-.31-.18-.01-.2.1-.27.22-.11.18-.32.28-.54.29-.26.01-.22-.2-.25-.35-.01-.05.01-.14-.06-.13-.44.05-.59-.3-.85-.48-.22-.16-.4.07-.6.02-.42-.1-.82-.06-1.2.15-.24.13-.51.14-.78.06-.52-.15-1.03.06-1.54.08-.07,0-.16.08-.2.14-.11.24-.38.22-.48.13-.37-.31-.8-.12-1.2-.17-.12-.13.25-.2.06-.32-.13-.08-.2.07-.32.09-.06.01-.14.05-.18.02-.33-.23-.61-.1-.93.06-.2.1-.35-.24-.65-.14-.38.13-.7-.15-1.05-.23.06-.15.34-.14.32-.35,0-.01.08-.05.11-.03.51.24,1.14-.12,1.61.3.12.1.32.1.38-.12.01-.05.02-.14.08-.12.44.1.75-.25,1.17-.22.29.03.4-.13.48-.32-.06-.15-.42.08-.4-.23.02-.28.16-.45.46-.53.39-.1.73-.28,1.03-.55.08-.08.15-.17.17-.27.06-.67.34-1.28.67-1.84.33-.55.39-1.13.51-1.71.06-.25.21-.48.33-.68.19-.32.14-.67.24-.99.06-.21.06-.52.01-.78-.07-.38-.06-.75.11-1.12.05-.1.26-.37-.13-.43-.01,0-.04-.06-.04-.06.44-.21-.01-.5.08-.74.09-.28-.08-.56.05-.84.05-.1.06-.23-.08-.31-.41-.23-.45-.44-.32-.9.11-.36.06-.75.16-1.12.18-.66-.06-1.34.19-1.99.09-.24-.05-.33-.37-.4.37-.15.45-.37.31-.61-.09-.16.09-.16.13-.25.09-.23-.02-.38-.16-.54-.16-.17-.25-.08-.38.02-.12.09-.25.07-.37-.02-.09-.08-.19-.16-.39-.13.47-.13.53-.46.59-.8.04-.22.13-.37.32-.07.06.09.19.12.2.03.06-.33.49-.51.4-.9-.06-.23-.09-.31-.39-.21-.48.17-.95.37-1.48.39-.13.01-.2.08-.21.17-.02.1.11.13.18.14.26.07.48.33.82.06-.01.28-.12.36-.34.33-.38-.05-.73-.17-1.13-.09-.26.06-.33-.35-.67-.3-.18.02-.44-.12-.49.1-.07.25.22.21.4.24.04.01.08.02.19.05-.32.1-.58.21-.85.25-.35.06-.15-.24-.28-.38-.26.4-.75.59-1.06.97-.07.08-.22.12-.35.15-.09.02-.22.08-.2.13.12.44-.26.31-.46.31-.6-.02-.77.08-.92.6-.02.07.01.28-.08.18-.15-.14-.45.14-.48-.17-.02-.21-.22-.23-.4-.25-.18-.02-.28,0-.37.2-.08.23-.32.21-.52.07-.2-.14-.4-.25-.67-.25-.33,0-.78.58-.66.85.14.31.51.6.08.98-.08.07-.05.36.05.48.26.33-.04.38-.27.48.28.12.47.84.22,1.07-.31.28-.18.56-.13.84.04.22.02.43-.04.62-.06.21-.31.41.13.52.02,0,.05.08.04.1-.18.32-.06.66-.06.98,0,.3,0,.65-.02.92-.02.5.08,1.03-.09,1.53-.19-.05-.01-.27-.21-.27-.05,0-.13.07-.13.09.02.15.09.32.25.33.19.02.16.03.21.21.18.62.02,1.27.24,1.88.05.15.16.32.04.45-.12.12-.22-.18-.41-.05.07.17-.04.41.31.53.12.05.22.3.21.46-.04.46.27.89.11,1.35-.06.17.15.25.34.3-.38.24-.35.6.05.84-.25.09-.59.06-.6.39,0,0-.14.02-.2,0-.22-.08-.45-.01-.57.13-.19.24-.27.05-.44-.08.02.27-.18.47-.06.7.06.12-.04.46.34.22.11-.07.13.06.19.12.12.12-.01.14-.08.16-.28.14-.55.31-.85,0-.13-.15-.49-.13-.38-.47.04-.1-.21-.22-.39-.16-.13.05-.31.13-.08.28.08.06.05.13-.04.16-.15.07-.29.02-.41-.06-.08-.06-.24-.1-.13-.24.04-.06.09-.12.11-.17.06-.2-.09-.27-.27-.28-.13-.01-.21.46-.34.08-.05-.15-.21-.3-.18-.43.09-.27.19-.62.41-.74.34-.17.15.21.22.35.13-.14.29-.27.21-.43-.27-.53.4-.65.48-1.03-.09-.01-.22-.03-.35.1-.15.17-.33.09-.45-.05-.13-.16,0-.24.14-.31.26-.13.45-.38.82-.25.14.05.24-.15.22-.29-.05-.43.13-.84.01-1.27-.14-.01-.09.13-.15.18-.13.16-.32.14-.33-.02-.04-.3-.2-.29-.42-.21-.22.08-.28,0-.24-.17.08-.38-.04-.76-.05-1.14,0-.24.01-.45.29-.61-.65-.2-.4-.6-.31-.93.12-.39.12-.81.2-1.19.11-.48-.12-.96.07-1.45.11-.28,0-.67,0-1.01,0-.31-.01-.62.01-.93.01-.27.05-.52-.2-.71-.07-.06-.12-.21-.01-.25.44-.2.25-.53.22-.81-.02-.23-.07-.44.05-.66.08-.15.05-.38-.06-.46-.26-.2-.18-.48-.13-.65.11-.38-.11-.45-.41-.51-.07-.01-.15-.03-.15-.13.13-.13.25.02.37.02.25,0,.48-.22.45-.44-.01-.06-.04-.09-.11-.12-.08-.02-.15-.01-.19.06-.05.1-.11.18-.24.22-.15.03-.31-.07-.22-.14.38-.32-.12-.5-.12-.76,0,.24-.26.36-.33.55-.28-.1-.58.1-.87-.03-.18-.08-.15-.07-.21.12-.01.05-.02.48-.33.14-.12-.14-.21-.01-.29.05-.13.09-.28.15-.45.16-.14.01-.34-.07-.39.09-.05.16.25.13.29.25-.06.13-.31.14-.19.38.05.1-.42.09-.49.02-.35-.33-.33.02-.46.2-.08-.3-.2-.28-.34-.05-.19.31-.54.15-.81.16-.11.01-.07-.41.07-.47.13-.06.29-.13.42-.1.53.12.73-.27,1.03-.52.05-.03.04-.08,0-.09-.35-.13-.02-.27-.01-.39.01-.17.15-.37-.21-.31-.19.03-.24-.15-.39-.16.06-.21.27-.28.4-.3.28-.06.26-.22.18-.35-.26-.4-.09-1.03-.78-1.23-.08-.02-.14-.09-.21-.02-.06.06-.13.14-.13.21,0,.09.12.1.21.09.14-.02.29-.07.4.13-.41.14-.97.29-1.2.09-.35-.3-.54-.08-.81-.02-.02,0-.05.03-.07.05-.19.12-.39.13-.59.03-.05-.02-.11-.1-.09-.12.14-.15.25-.33.48-.39.09-.02.2-.05.31-.05.2,0,.05-.47.41-.25.09-.2.2-.39.31-.61-.34-.01-.32.24-.49.41.02-.37-.04-.68-.29-.93-.29.23-.4.62-.7.9-.08.08-.15.18-.28.14-.16-.06-.02-.16-.01-.23.05-.17-.21-.27-.09-.45-.24-.02-.34.53-.64-.05.14.54-.48.54-.53.9-.01.05-.13.07-.14.02-.09-.21-.47-.06-.49-.33-.01-.12.11-.1.19-.13.02,0,.08-.01.08-.02.07-.43.48-.65.72-.97.01-.02.04-.05.04-.07-.02-.41.08-.51.58-.54.29-.17.2-.37.16-.52.05-.01.13-.03.16,0,.32.22.57.31.64-.17.01-.07.07-.1.14-.14.27-.12.53-.24.85-.38-.34-.03-.32-.14-.16-.31.29-.35.6-.68.81-1.08.13-.25.22-.68.09-.73-.31-.12-.58.16-.79.39-.27.29-.57.54-1.01.44-.31-.07-.42.12-.54.25-.21.25-.26.6-.55.82-.12.08-.02.18.11.24.13.05.24-.13.37-.02.06.24-.28.43-.11.69Zm27.69-37.19c-.09-.36-.47-.29-.73-.43-.54-.28-.55,0-.62.32-.01.07-.04.13-.05.2-.05.23-.06.51.25.53.38.02.19-.29.2-.45.01-.14-.01-.3.14-.35.15-.05.33.02.42.16.08.15.17.25.37.16.16.05.33.12.51.15.29.07.47.01.39-.31-.05-.18-.06-.36.14-.51.12-.09.16-.24-.05-.37-.07.13.04.28-.15.36-.09-.13-.21-.27-.29-.4-.05-.08-.05-.2-.19-.17-.12.02-.13.13-.18.21-.13.3-.07.61-.15.9Zm-12.63,20.77c.54-.07.77-.36.51-.68.24-.06.54-.05.33-.4-.07-.14.14-.2.31-.2.21.01.4-.01.61-.08.39-.13.68.09.71.47.02.24.22.23.38.14.16-.1.27-.28.42-.4.09-.07.31-.17.29.01-.02.22.11.45-.04.66-.07.12-.11.22.04.31.13.09.25.03.38,0,.34-.08.65-.25,1.04-.47-.13.24-.21.38-.29.52-.15.28.06.38.28.31.49-.16.49.09.49.39,0,.4.14.52.59.45-.33-.15-.16-.36-.05-.52.18-.22.21-.47.29-.73-.22-.02-.24.14-.33.21-.15.12-.26.23-.41-.06-.19-.36.13-.52.22-.75.18-.44.11-.66-.34-.82-.37-.13-.39-.15-.61-.44-.02-.03-.11-.06-.15-.06-.16-.02-.21-.16-.32-.24-.18-.14-.16-.46-.32-.46-.31,0-.61-.22-.91-.01-.31.2-.71.32-.6.78.01.05-.05.09-.15.08-.05-.09-.11-.2-.15-.3-.21-.5-.29-.52-.81-.21-.51.3-1.01.58-1.53.86-.14.07-.31.12-.47-.02.2-.12.41-.22.59-.35.11-.08.14-.23.04-.32-.14-.12-.18.03-.26.1-.14.12-.31.2-.47.29-.11.06-.31-.16-.37.08-.05.2.11.28.28.32-.07.15-.37.08-.29.27.06.14.22.25.42.27.16.01.34-.02.48.01.13.03.32-.14.39.13.06.22,0,.32-.17.44-.18.09-.29.24-.05.41-.25.13-.66.13-.48.58.05.12-.2.2-.29.09-.29-.31-.47,0-.7.07.47.17.97.16,1.41,0,.45-.17.44-.22.12-.62-.04-.03-.04-.07-.06-.12Zm6.87,34.76c-.15.59-.05,1.09-.08,1.61-.01.21.13.24.29.28.13.03.32.01.34.15.04.18-.25.1-.32.22-.06.09-.27-.05-.27.12,0,.06.11.12.18.16.13.09.24.07.33-.07.09-.15.18-.08.26.03.05.07.08.23.2.15.08-.06.2-.1.24-.24.06-.2-.07-.4,0-.52.19-.3.47-.55.12-.9-.02-.02.04-.13.06-.18.04-.07.2-.15-.01-.2-.06-.01-.22-.09-.22.08,0,.1-.06.16-.17.14-.14-.03-.09-.14-.07-.23.04-.24.22-.53-.16-.69-.07-.03.01-.08.01-.12.14-.59.06-1.16-.07-1.74-.01-.08-.05-.13-.14-.12-.15.01-.34-.1-.46.05-.09.12-.13.28-.06.41.12.22.15.41-.02.62-.04.05.08.16-.08.16-.09,0-.18-.02-.2-.12-.04-.24-.12-.2-.33-.09-.29.14-.15.43-.37.6-.49.38-.47.4-.35.87,0,.01,0,.02-.01.03-.26.25-.08.62-.35.91.22-.01.4-.13.55.03.04.03.13.1.16-.01.08-.28.38-.44.47-.74.06-.23.18-.48.54-.67Zm14.69-72.45c-.45-.23-.73-.52-.61-1,.02-.09-.01-.17.01-.27.02-.13-.16-.31-.25-.22-.29.32-.34-.06-.49-.1-.04.24-.25.43-.44.41-.31-.02-.58.05-.86.06-.22.01-.57.15-.64-.27-.02-.18-.27-.13-.44-.14q.04.5-.8.45c.12.33.6.48.55.9-.01.06.02.07.07.06.44-.1.57.23.75.44.22.24.45.43.84.43.27,0,.4.13.16.36-.08.08-.14.18-.01.28.15.1.19-.06.22-.1.4-.43,1.05-.63,1.32-1.18.02-.05.06-.08.09-.03.22.25.33-.08.51-.07Zm-2.37,3.83c.55.07.88-.05,1.14-.27.41-.35,1-.5,1.28-.98.02-.03.12-.09.05-.1-.25-.06-.38-.36-.72-.22-.42.17-.92.07-1.35.06-.91-.02-1.8-.22-2.7-.35-.18-.02-.24.01-.24.18,0,.24.25.44.2.65-.07.28.09.32.29.39.09.03.22.05.28.1.52.51,1.35.17,1.76.53Zm-18.85-2.13s-.11-.05-.14-.09c-.18-.16-.37-.12-.51,0-.15.12.01.25.07.35.24.36.46.75,1.04.73.05,0,.12.05.14.08.21.32.52.3.86.22.07-.01.15-.01.18-.09.01-.08-.06-.12-.12-.16-.2-.16-.48-.12-.72-.18-.19-.05-.45-.08-.41-.29.04-.18.29-.22.48-.18.35.08.67-.01,1.01-.08.12-.02.24-.06.35-.03.75.13,1.37-.37,1.3-1.07-.02-.21-.07-.32-.35-.25-.54.14-1.13.08-1.64.37-.26.14-.48-.13-.51-.2-.06-.18.19-.13.32-.17.28-.09.65-.01.87-.27.05-.05.12-.13.11-.16-.05-.14-.16.01-.2-.01-.37-.24-.67.08-.93.15-.37.12-.75.21-1.13.32-.27.08-.33.2-.16.41.11.21.28.37.09.62Zm18.1-5.5c-.12.09-.14.18-.07.3.07.13.21.15.34.14.25-.01.46-.13.66-.23.16-.08.34-.06.45.08.12.16-.07.25-.16.32-.29.2-.62.3-1,.24-.15-.02-.29-.05-.27.18.01.12.31.2.09.32-.14.09-.28-.09-.37-.09-.21.01-.34-.14-.53-.16-.09.09.02.15.01.23-.07.61.01.68.72.76.51.06.85-.31,1.3-.36.02,0,.26-.16.01-.27-.14-.05-.04-.09,0-.14.34-.5.62-1.04,1.31-1.26.11-.03.24-.07.16-.23-.07-.15-.19-.08-.31-.07-.87.07-1.73.43-2.62.09-.07-.02-.12-.02-.09.06.01.06-.01.15.12.12.07-.01.16-.02.25-.05Zm-3.39,31.3c.24.12.49.07.58.25.27.68.99.52,1.54.67.07.02.16-.05.2-.13.09-.24-.07-.6-.37-.68-.12-.03-.16-.07-.21-.16-.18-.36-.46-.67-.45-1.08,0-.21-.14-.36-.35-.41-.31-.09-.45.17-.65.29-.21.14,0,.22.11.32.18.16-.19.08-.15.21.13.03.24.07.34.12.09.05.12.18.05.18-.32.03-.33.35-.64.43Zm-4.29-4.66c.09-.12.07-.18.06-.24-.02-.1-.21-.22,0-.3.17-.06.38-.08.47.1.06.12.12.25.26.22.19-.03.11-.22.13-.35.04-.14-.06-.25-.12-.38-.11-.21-.26-.4-.16-.65.06-.16-.01-.23-.16-.25-.21-.02-.24.13-.27.25-.02.09.19.21,0,.27-.18.06-.2-.13-.26-.22-.15-.25-.27-.52-.7-.28-.16.09-.55-.18-.57.24-.02-.01-.05-.02-.08-.03-.18-.06-.2.05-.2.16-.02.43.34.76.84.76.09,0,.24.02.22.08-.09.44.42.35.54.61Zm-24.21,14.23c.22.31.11.53-.19.73-.18.12-.4.21-.53.37-.35.39-.22.89-.33,1.34-.01.07.18.2.21.16.18-.22.55-.23.66-.47.11-.24.26-.41.52-.53.73-.31.73-.98.97-1.52.02-.06.07-.17-.06-.2-.09-.02-.15.06-.19.13-.08.15-.22.24-.39.13-.22-.14-.44-.09-.67-.13Zm12.4-29.09c.09.02.19.07.22-.06.05-.14.07-.28-.11-.35-.16-.07-.33-.16-.31-.31.05-.32-.38-.32-.44-.6-.04-.14-.34-.39-.64-.14-.22-.24-.37-.09-.62,0-.42.15-.21.3-.12.46.12.21.34.39.4.61.16.61.68.82,1.24.46.12-.09.21-.17.37-.08Zm-8.59,25.75c.02.22.21.29.38.35.07.02.22.01.19-.14-.05-.22-.46-.44-.7-.37q-.51.15-.53-.31c-.01-.2-.01-.37-.31-.4-.27-.03-.46-.01-.55.25-.07.18-.18.33-.42.43-.22.09-.35.3-.32.58.05.4.34.3.62.33.57.07,1.12.21,1.39-.44.04-.12.14-.17.25-.28Zm22.21-27.66c.13.29-.18.51-.14.82.05.33.18.52.46.69.6.37,1.3.2,1.94.29.08.01.14-.03.13-.12-.01-.09-.08-.17-.16-.16-.32.05-.31-.17-.39-.33-.18-.32-.2-.73-.74-.82-.26-.05-.34-.07-.44.18-.02.07-.05.14-.13.13-.05,0-.13-.07-.12-.09.11-.33-.27-.39-.41-.59Zm2.17,25.2c.19-.52-.05-.82-.26-1.13-.11-.16-.38-.03-.44-.25-.04-.15-.11-.32-.34-.3-.21.02-.29.2-.4.31-.06.07-.06.2-.16.21-.14.01-.13-.13-.15-.21-.02-.08-.08-.2-.16-.14-.27.17-.27-.05-.37-.16-.15-.16-.32-.31-.48-.47s-.25-.12-.33.08c-.21.46.27.54.51.75.24.21.55.33.62.69.09.47.51.69.97.51-.33.05-.52-.05-.53-.33,0-.09-.2-.2-.05-.31.12-.09.29-.09.42,0,.38.21.93.21,1.15.76Zm17-.39c-.16-.21-.47-.32-.42-.65.05-.31-.26-.37-.51-.45-.31-.09-.62-.16-.93-.27-.35-.13-.64.16-.98.13-.02,0-.08.13-.06.22.08.22.27.38.45.5.26.16.59.24.9.35.06.02.18.09.18,0,0-.3.09-.16.18-.05.18.24.46.24.72.23.15.01.29-.01.48-.01Zm-33.23-15.53c.21.28.38.5.54.71.14.18.88.41,1.04.27.2-.18.52-.15.59-.09.49.33.75-.01,1.07-.23.06-.05.14-.07.13-.15-.01-.12-.13-.08-.21-.1-.28-.06-.57-.15-.67-.4-.06-.14-.13-.12-.24-.17-.37-.18-.6.09-.91.09-.04.22.14.29.35.33-.62.37-1.06-.18-1.7-.25Zm5.79-4.81c.42.23.74.17,1.05,0,.12-.06.25-.09.38-.1.18-.01.28.01.28.21,0,.36.64.44.51.88,0,0,.02.01.04.01.27-.02.57-.07.73-.24.08-.09.12-.37-.13-.53-.2-.13-.39-.29-.37-.59.01-.16-.14-.39-.29-.52-.13-.1-.26.13-.42.15-.06.01-.12.03-.18.05-.57.1-1.03.43-1.59.69Zm-.62-13.74c.38-.06.74-.24,1.11-.01.12.07.21-.07.28-.15.14-.16.42-.16.48-.08.14.18.29.18.44.1.15-.09.24-.32.12-.43-.31-.29.01-.51.02-.76,0-.02-.02-.03-.05-.06-.45.13-.9.24-1.38.28-.05,0-.11-.01-.11.08,0,.14-.01.14-.07.15-.53.07-.86.3-.85.88Zm-6.55-2.41c.05.31-.02.39-.28.23-.07-.05-.18,0-.22.08-.2.28-.05.85.31.95.48.12.8.74,1.44.38.01-.01.05.02.08.03.35.08.35-.12.28-.32-.09-.27-.39-.38-.57-.6-.27-.3-.8-.3-1.04-.75Zm35.08,45.01c-.26-.17-.54-.15-.78-.28-.26-.14-.34-.41-.58-.54-.27-.15-.02-.28-.02-.4,0-.2.2-.09.32-.09.13,0,.25.06.42-.05-.61-.03-1.11-.3-1.67-.31-.08,0-.16-.07-.16.08,0,.24-.41.24-.39.58.04.37.45.23.58.44.2.3.54.35.88.25.19-.05.21.02.29.13.25.31.61.46,1.08.51-.26-.13-.38-.22.02-.31Zm-9.1-30c-.01-.09-.09-.1-.15-.14-.21-.14-.39-.33-.53-.5-.19-.21-.33-.18-.57-.2-.46-.02-.75.2-1.04.45-.09.08-.38.07-.25.3.09.17.27.17.46.17.26,0,.65-.21.61.29,0,.02.07.07.09.06.45-.08.88-.17,1.31-.35.04,0,.05-.06.06-.09Zm-1.97,4.93c.46-.06.94.08,1.12-.44.01-.05.15-.09.24-.1.46-.08.42-.47.54-.74.06-.13.02-.48-.39-.29-.08.03-.21.03-.31.02-.53-.08-.66.45-1.07.54-.01,0-.04.06-.02.07.29.33-.02.61-.11.93Zm-5.34.96c-.13.15-.01.24-.02.28-.08.17.31.28.08.47-.08.07-.25.08-.21.22.06.18.25.09.38.13.29.07.66.01.62.48-.01.25.38.36.59.16.15-.14.29-.13.48-.09.28.06.19-.18.25-.3-.35-.12-.49-.44-.74-.66-.42-.38-1.25.06-1.43-.69Zm-16.46-16.91c-.02.17-.08.39.14.45.21.06.34.14.46.31.06.09.21.17.35.08.08-.06.27-.12.21-.21-.09-.16.21-.38-.11-.48.06-.1.08-.22.27-.21.2.01.41-.03.62-.05.25-.01.37-.17.37-.33,0-.22-.25-.12-.38-.14-.52-.09-.99.16-1.5.16-.35,0-.61.02-.45.41Zm8.45-20.79c.48.08.48.09.38.47-.04.12-.07.22.08.25.18.03.13-.1.14-.18.05-.2.22-.25.4-.22.46.09.7-.09.66-.51-.01-.16-.02-.35.24-.41.13-.03.39-.07.26-.22-.11-.13-.18-.38-.58-.25-.66.21-.97.71-1.58,1.07Zm-11.59,11.69c.02-.41-.25-.71-.6-.81-.07-.02-.12-.08-.18.01-.15.22-.39.4-.22.71.08.15.09.32.08.51-.02.32.32.66.67.67.19,0,.29-.06.31-.3.02-.32.02-.61-.06-.8Zm2.05,27.72c-.06-.12-.15-.23-.16-.36-.02-.31-.2-.33-.52-.39-.61-.12-.91.38-1.39.48-.12.02-.19.18-.12.31.07.13.19.08.31.06.16-.02.33.01.45-.14.22.29.64.13.93.31.2.13.52-.06.51-.28Zm8.25,21.46c.57-.06.66,0,.67.51,0,.12.02.24.16.24.2,0,.42.14.6.02.14-.09,0-.23-.04-.36-.09-.33-.28-.69.02-1.03.17-.18-.09-.24-.16-.36-.08-.12-.18-.13-.33-.03-.42.24-.74.54-.93,1Zm21.93,2.88c-.21-.28-.4-.55-.64-.81-.14-.14-.29-.39-.58-.21-.28.18-.39.63-.24.85.13.18.64.17.38.56,0,0,.01.02.02.02.19.03.4.13.58.1.29-.05.32-.32.47-.53Zm-20.24-47.38c-.27.16-.74.28-1.07.27-.09,0-.18-.05-.19.08-.02.29-.26.5-.38.76-.04.08-.13.15-.06.25.14.21.87.16,1.01-.07.13-.22.2-.55.39-.62.4-.15.29-.39.29-.67Zm-2.47-2.65c.11-.32.34-.48.65-.58.12-.03.16-.12.15-.22-.01-.13-.13-.12-.24-.15-.35-.08-.65.08-.93.21-.14.07-.47.14-.12.38.18.12,0,.28-.11.32-.52.23-.07.37.08.43.31.1.66.16.84-.22-.08-.13-.25-.12-.33-.17Zm-3.1,23.29c-.31.13-.72.21-1.13.33-.2.06-.14.23-.02.36.24.23.57.31.87.25.37-.07.57-.33.64-.67.05-.22-.02-.3-.35-.28Zm-.37-8.9c-.26.06-.14-.41-.6-.17-.46.25-.6.29-.14.65.33.27.7.17,1.05.24.13.02.09-.09.11-.17.04-.32-.09-.6-.25-.88-.18.06-.06.24-.16.33Zm-13.3,4.59c-.12-.02-.26-.01-.34.09-.2.24-.44.41-.77.52-.12.05-.33.23-.04.44.24.17.35-.03.47-.03.52,0,.62-.39.92-.6.09-.07.19-.18.11-.32-.07-.14-.21-.08-.35-.09Zm33.2-15.11c-.29.01-.38-.3-.57-.32-.37-.03-.78-.12-.99.36-.12.28-.13.4.2.48.19.05.34,0,.52-.07.29-.12.51-.36.84-.45Zm-31.91,8.84c.21.1.4.06.57.02.28-.05.19.22.33.27.07.02.19.07.21-.06.01-.12.04-.2.19-.13.13.06.19.02.22-.1.04-.1.01-.18-.08-.24-.11-.06-.22-.05-.27.06-.07.15-.15.13-.28.07-.16-.07-.12-.18-.12-.31,0-.12.01-.24.16-.23.53.03.15-.29.15-.38.01-.23-.21-.15-.35-.09-.2.08-.38.27-.26.39.25.28-.04.35-.16.43-.11.09-.22.17-.31.31Zm-.65,8.56c.02-.23.08-.45.4-.37.19.05.24,0,.27-.14.07-.24-.18-.1-.24-.15-.06-.06-.49.07-.15-.27.16-.17-.45-.2-.46-.5,0-.01-.11-.02-.16-.02-.01,0-.02.02-.02.02.09.22-.13.28-.25.38-.25.21.28.15.13.31.31.16.08.6.48.73Zm14.98-41.48c.14.23.39.18.57.28.42.23.77.15,1.01-.22.16-.24.4-.31.68-.24.22.06.18-.09.16-.17-.01-.12-.14-.17-.22-.14-.16.08-.35-.15-.47.03-.14.24-.34.33-.64.36-.35.02-.71.07-1.1.1Zm14.55,39.94c-.32.01-.52-.07-.64-.33-.05-.1-.24-.18-.32-.31-.06-.09-.15-.08-.24-.05-.13.05-.04.14-.04.21,0,.1.11.17.12.24.04.24.29.43.21.68-.02.08-.16.14-.04.23.09.06.19.03.29,0,.35-.12.34-.5.64-.67Zm2.11,11.69c.02-.14.04-.27.25-.29.19-.02.27.1.37.2.09.09.07.22-.04.3-.11.08-.13.16-.02.23.08.06.21.4.28-.01.04-.18.33.03.38-.16.02-.08-.4-.91-.48-.93-.4-.14-.55.24-.84.35-.22.07.14.17.11.32Zm-9.59,15.4c-.19.53.33.41.55.45.29.05.11-.17.11-.29s.08-.16.18-.21c.07-.03.12-.09.08-.2-.07-.2-.25-.36-.4-.45-.15-.09-.29.17-.41.29-.11.13-.09.29-.11.4Zm-2.49-43.04c-.06.28.01.47.35.48.18.01.72-.56.65-.73-.15-.38-.51,0-.78-.12-.19-.07-.35.15-.22.36Zm-8.67,54.41c.15.06.32.07.45.01.34-.14.57-.44.95-.53.12-.02.15-.21-.04-.22-.29-.01-.61.01-.91.06-.41.06-.34.43-.46.68Zm-6.09-47.14c-.09-.21-.07-.54-.46-.48-.33.05-.26.41-.29.62-.02.16.08.51.4.47.34-.05.41-.31.35-.61Zm-4.78,22.19c.24,0,.93-.55.95-.75.01-.07-.02-.16-.07-.22-.08-.08-.15,0-.24.05-.11.05-.19.12-.32.13-.2.01-.6.54-.54.71.04.08.12.08.21.08Zm39.21-11.74s-.01-.02-.02-.03c-.02.01-.04.02-.06.05,0,0,.01.02.02.02.02-.01.04-.02.06-.03Z"/><text class="cls-6" transform="translate(26.07 54.11)"><tspan class="cls-3"><tspan class="cls-2" x="0" y="0">in </tspan><tspan class="cls-9" x="46.56" y="0">g</tspan><tspan class="cls-4" x="65.13" y="0">ood </tspan></tspan><tspan class="cls-5"><tspan class="cls-1" x="0" y="51">tas</tspan><tspan class="cls-7" x="82.42" y="51">t</tspan><tspan class="cls-1" x="105.31" y="51">e</tspan></tspan></text></svg>