<?xml version="1.0" encoding="UTF-8"?><svg id="Layer_1" xmlns="http://www.w3.org/2000/svg" viewBox="0 0 170.04 312.96"><defs><style>.cls-1{fill:#50863d;stroke-width:0px;}</style></defs><path class="cls-1" d="m28.91,252.46c-.34-.14-.68.08-1.05.06.45-1.05.34-.83-.77-1.3-.74-.31-1.7-.36-2.21-.86-.48-.47-.91-.89-1.67-1.05.62-.44,1.33-.75,1.5-1.47.06-.22.17-.47-.06-.64-.23-.17-.48,0-.65.17-.45.44-.91.61-1.47.14-.2-.17-.45-.22-.68-.03-.23.17-.23.42-.14.64.14.33.43.58.45,1.08-.91-.25-1.76-.44-2.69-.08-.57.22-.77-.39-.71-.8.06-.39.09-.75-.2-1.08-.23-.28-.06-.42.28-.53.71-.25,1.33-.58,1.87-1.11s1.16-.19,1.62.17c.94.72,2.01.78,2.72,0,.71-.78,1.25-1.66,2.21-2.25.17-.11.37-.44.2-.47-.88-.14-.68-1.25-1.56-1.36,0-.36,1.3-.55.2-1.08-.14-.06-.37-.17-.37-.06-.17.92-1.9.55-1.81,1.8.03.19-1.02.64-1.56.64-.45,0-.26-.58.03-.72.54-.25.57-.69.68-1.11.48-.11.17.55.54.42.28-.11.37-.36.11-.64-.23-.22.06-.33.17-.47.14-.25.03-.58-.2-.5-.62.19-1.42-.89-1.98.25-.26.53-1.19.36-1.64.11-.62-.31-1.3-.33-1.93-.64.09-.36.45-.06.62-.22-.26-.39-.62-.14-.94-.14-.26,0-.65.19-.74-.14-.09-.28.14-.53.51-.64.34-.08.62-.36,1.02-.22,1.36.47,2.72-.08,4.08-.06.09,0,.2-.11.31-.08.37,0,1.02.8,1.05-.08.03-.44.54-.64.34-1.19-.14-.42.43-.94.74-1.41.17-.25.82-.44.43-.86-.28-.31-.88-.36-1.22-.19-.94.47-1.96.33-2.92.47-.31.03-.65-.06-.96,0-.6.08-.71-.14-.6-.58.17-.64-.23-.61-.71-.55-.28.03-.6.08-.85.03-.4-.08-.71-.31-.68-.72.03-.5.45-.28.71-.28.88,0,1.84.17,1.9-1.05,0-.14.26-.31.45-.39.74-.36.77-.64-.26-.86.57-.31,1.05-.22,1.39-.14,1.42.28,2.47-.11,3.43-1.03.51-.5,1.02-.8.17-1.36-.85-.55-.51-1.16.14-1.53.85-.47,1.53-1.05,1.87-1.89-1.59-.22-2.84.33-3.2,1.41-.48-.31-.94-1.08-1.5-.06-.09.17-.48.31-.54.19-.62-1.08-1.93-.47-2.81-.97-.23-.14-.62-.19-.57-.5.06-.28.43-.17.65-.19.28-.06.57-.08.82.08.34.22.62.08.74-.25.17-.42.51-.69.88-.94.17-.11.37-.22.23-.47-.37-.69-.06-.86.65-.61.94.33,1.84.03,2.72-.19.31-.08,1.19-.33.26-.86-.06-.03-.06-.25-.03-.25,1.05-.19.37-1.11.79-1.5.65-.58-.11-.75-.31-.72-.62.11-.62-.42-.99-.67-.6,1.55-2.21,1.19-3.43,1.41-.96.17-1.67-1.39-1.19-2.36.14-.28.57-.53.23-.86-.28-.28-.65-.19-.99-.06-.2.08-.43.17-.54-.08-.34-.78-1.13-.89-1.9-1.08-.31-.08-.77-.25-.57-.53.17-.22,0-.61.68-.72,1.25-.19,2.5-.47,3.77-.67.34-.06.65-.31.99-.39.23-.06.79-.42.51.36-.17.47,1.02.89,1.56.44.91-.78,2.13-1.14,3.01-1.94.2-.17.43-.33.28-.55-.17-.28-.43-.11-.65-.03-.2.08-.43.14-.62.06-.79-.42-1.67-.67-2.61-.75-.2-.03-.45-.08-.45-.33,0-.28.26-.25.45-.31.62-.19,1.05-.64,1.42-1.11.17-.22.57-.44.2-.75-.31-.25-.77-.33-1.11-.08-.94.75-1.98.11-2.55-.19-.79-.44-1.33-.22-1.67.11-.48.47-1.02.47-1.56.47-.65-.03-1.28-.11-1.93.03-.37.08-.85.03-.85-.36-.03-.44.45-.58.85-.47.45.11.88-.03,1.25-.08.6-.08,1.56-.06,1.36-1.05-.06-.28.03-.56.43-.5.34.06.31.31.23.53-.06.14-.06.25.14.39.4-.19.74-.61,1.39-.19.26.17.96-.28,1.47-.44.17-.06.28-.17.43-.28.43.64.88.42,1.22,0,.37-.47.96-.5,1.45-.75.48-.25.14-.72.17-1.08.03-.39.03-.67.62-.61.51.06.88-.14,1.08-.61.2-.5.71-.83,1.16-.92,1.3-.22,1.19-1.19,1.67-2.16-1.42.55-2.52.25-3.66-.17-.54-.19-1.11-.19-1.5.33-.34.47-.94.36-1.5.55.2-.44.62-.36.85-.67-.48-.44-1.13-.58-1.67-.31-.48.25.2.58.2,1.03-.37-.33-1.19.39-1.16-.61,0-.11-.23.03-.34.08-.88.33-1.56-.06-2.15-.55-.14-.11-.23-.28-.09-.42.11-.14.34-.19.48-.08,1.13.8,2.38.22,3.52.06,1.08-.14,2.07-.78,3.23-1.25-.6-.31-1.19-.31-.96-1.05.09-.31-.88-.61-1.53-.64-1.3-.06-1.76-.47-1.67-1.61.77.39,1.45.64,1.42-.56,0-.39.37-.33.62-.19.57.33,1.25.31,1.87.42.77.11,1.5.06,2.24-.5.74-.53,1.59-1.05,2.64-1.16.65-.08.43-.89.85-1.08.79-.36.71-.58.06-.97-.14-.08.03-.17.17-.25.62-.31.26-.5-.11-.67-.14-.06-.45-.03-.48-.08-.43-.97-1.39-.8-2.21-.83-.37-.03-.54.03-.71-.33-.23-.5-1.05-.33-1.22-.25-.99.55-1.67-.19-2.5-.31-.09,0-.11-.25-.23-.53-.23.58-.54.92-1.16.92-.74,0-1.3.17-1.87.75-.48.47-1.45-.11-2.18-.22-.54-.08-1.08-.44-1.53-.97.88-.25,1.45.25,2.07.5.43.17.77.58,1.33-.03.51-.55.57-.75-.2-1-.23-.08-.4-.28-.57-.44-.17-.17-.14-.36,0-.53.14-.19.4-.11.6-.06.11.03.26.14.34.22.23.28.37.69.88.53.14-.06.37-.19.37-.31.03-.44-.51-.47-.88-.78,1.02-.31,1.9-.75,2.89-.17.54.31,1.11.31,1.62-.08.48-.36.54-.58,0-1.14-.91-.94-2.15-1.19-3.29-1.69-.31-.14-.62-.36-.48-.64.14-.31.51-.08.77-.03.88.22,1.81-.06,2.75.25.68.22,1.45.22,2.01.78.14-.39-.31-.47-.28-.75.34-.17.45.11.65.22.2.11.6.14.6.08.06-1.03,1.3-.61,1.79-1.25.54-.72,1.81-.58,2.64-1.19.51-.36,1.13-.61,1.39-1.3-.94-.28-2.07-.17-2.86-.94.71.03.88-1,1.81-.78-.77-.19-.79-1.22-1.76-1.14-.06,0-.17-.17-.14-.22.26-1.05-.62-.97-1.33-1.08-1.19-.22-1.96-1.25-3.18-1.44-.26-.03-.34-.25-.09-.42.23-.17.43-.58.77-.28.65.53,1.22.44,1.87.06.28-.17.37,0,.77.31.26.19.77.44,1.13,0,.77-.92,1.39-1.97,2.44-2.69.14-.11.23-.31.06-.42-.26-.17-.57-.11-.79.08-.6.58-1.3,1.11-1.76,1.8-.11.19-.14.44-.45.5-.14.03-.31.03-.4-.03-.17-.11-.03-.22.09-.28.17-.11.14-.25.11-.42-.09-.42.51-.86.11-1.16-.31-.22-.77.28-1.16.33-.54.06-1.08-.08-1.53.31-.14.14-.57,0-.68-.19-.11-.19-.17-.64-.09-.69,1.16-.47.11-1.05.06-1.55-.03-.58-.74-.89-1.02-1.41-.34.11-.14.47-.4.61-.2.11-.31.44-.6.22-.17-.14-.14-.33.09-.5.14-.11.31-.25.09-.39-.17-.11-.43-.14-.62-.03-.54.31-1.08.53-1.7.58-.28.03-.65.67-.82.06-.11-.39.11-.97.79-1,.65-.03,1.28-.19,1.84-.47.43-.19,1.11-.28.4-.89-.28-.25.03-.31.23-.36,1.5-.39,2.67-1.41,4.2-1.78,0,0,.06.06.06.08-.06.28-.51.47-.31.78.23.31.57-.06.88-.03.62.06,1.19-.47,1.87-.22.2.06.6-.28.37-.42-1.02-.64.17-.69.31-.8.71-.44,1.5-.86,2.44-.8.34.03.51-.17.71-.39.28-.31.48-.72,1.02-.8.11-.03.23-.17.26-.25.03-.19-.17-.22-.34-.28-.94-.19-.91-.55-.14-.92.4-.19.57-.42.37-.78-.23-.44-.6-.39-.99-.19-.28.14-.57.25-.62-.19-.14-1.14-.88-.72-1.42-.36-.68.44-1.33.94-2.15,1.22-.31.11-.48.11-.74-.14-.2-.19-.31-.75-.77-.5-.43.25.43.47.11.86-.45-.14-.99-.78-1.33-.53-.68.55-1.45.36-2.15.53-.23.06-.43.25-.68.11-.14-.08-.11-.25-.03-.36.17-.22.37-.5.65-.42.65.17,1.13-.28,1.79-.28-.91-.08-.82-.94-1.39-1.28-.17-.08-.09-.33.06-.42.62-.31.51-.94.85-1.39.14-.28-.2-.92.65-.72,1.19-.58,2.69-.8,3.2-2.19.09-.25.43-.53-.11-.69-.37-.11-.71-.14-.88.31-.26.64-.51,1.28-1.53,1.03-.17-.03-.45-.03-.48-.11-.31-.64-.82-.47-1.36-.31-.23.08-.51.14-.68-.11-.17-.25.03-.39.23-.55.4-.39.74-.64,1.42-.69,1.05-.08,1.98-.72,2.69-1.33.37-.33.68-.11.99-.25-.11-.47-.91-.58-.57-1.22.11-.22-.37-.17-.51.03-.45.53-.74.36-1.16-.08-.62-.67-1.64-.61-2.44-.61-1.13,0-1.13-.97-1.81-1.3-.06-.03-.2-.5.26-.5.65.03,1.08-.25,1.42-.69.26-.33.68-.25.74.08.23,1.3,1.39.72,2.01.69.57-.03,1.16-.28,1.79-.36,1.05-.17,1.76-.94,2.35-1.66.26-.33-.17-.67-.6-.72-.48-.08-.82-.14-.77-.69.06-.58.48-.72,1.02-.78,1.22-.11,2.47-.17,3.54-.78.91-.5,1.59-2.05,1.47-3.11-.03-.39.37-.75.43-1.19.03-.22.17-.42-.03-.69-.45.28-1.25.08-1.39.83,0,.03-.06.03-.09.06-.51.39-2.24-.08-2.52-.69-.28.08-.2.55-.37.5-1.56-.36-2.1,1.3-3.43,1.3-.57,0-.57.64-1.22.64s-1.13-.11-1.7-.31c-.14-.06-.26-.08-.26-.22,0-.22.17-.28.37-.25.28.03.6,0,.85.11.91.39,1.33-.33,1.9-.67.23-.14.14-.5-.06-.61-.57-.33-1.16-.61-1.79-.83-.23-.08-.54,0-.6-.28-.03-.19.03-.47.17-.64.28-.31.37.11.54.17.74.28,1.5-.06,2.24.06.28.03.6-.31.54.28-.03.31.37.44.62.39.31-.06.57-.33.57-.64-.03-.53-.14-1.03-.82-1.25-.06-.03-.14-.03-.2-.06-.48-.14-.96-.33-1.11-.83-.03-.06.09-.19.14-.22.57-.06.91.25,1.3.55.71.55,1.56.44,2.35.25.48-.11.68-.53.43-.94-.2-.33-.17-.72.09-.89.68-.36.48-.83.45-1.36-.09-.75-.77-.92-1.28-1.3-.4-.31-1.05-.25-1.28-.89-.31-.92.2-.83.88-.83,1.73.03,3.18-.69,4.51-1.55.06-.06.57-.69,0-1-.71-.39.34-1.03-.26-1.36-.43-.22-1.05.06-1.47-.42-.45-.47-.74-.92-.17-1.41.57-.5.06-1.05.11-1.58.03-.33-.65-.25-1.08-.11-1.08.42-2.15.83-3.29,1.14-.94.28-1.22.06-1.08-.78.06-.42-.17-.58-.45-.78-.14-.11-.45-.17-.28-.44.14-.22.34-.17.57-.14,1.22.17,2.38-.22,3.71-.44-1.22-.25-.57-.97-.6-1.47-.06-.53.54-.36.91-.42.54-.08.94-.39,1.25-.72.43-.47-.2-.67-.48-.94-.31-.36.14-.47.4-.58.99-.47,1.11-1.03.37-1.75-.28-.28-.26-.55.17-.75.99-.42.96-.42.62-1.5,2.07.97,3.37-.67,5.05-1.05.23-1.11,1.9-1.36,1.98-2.55,0-.11.17-.25.28-.28,1.13-.17-.03-.86.34-1.19-.48-.22-.82-1.05-1.47-.44-.28.28-.82-.17-.91.39-.03.14-.23-.06-.34-.11-.17-.06-.2-.11-.09-.28.26-.39.57-.83-.11-1.11-.68-.28-1.3.08-1.76.47-.45.42-1.9.83-2.1.42-.34-.72-.31-1.58-.43-2.39.68.03.57-1.16,1.5-.75.11.06.26-.11.23-.25-.03-.17-.06-.33-.26-.39-.28-.08-.54-.17-.82-.25-.26-.06-.37-.22-.34-.44.03-.25.28-.19.43-.14.62.22.11-.72.65-.5.37.14.65.39,1.02.53.17.06.43-.03.6-.11.79-.31,1.56-.58,2.47-.42.48.08.96-.03,1.05-.67.11-.78,1.02-.94,1.56-1.33.51-.36.74-.72.88-1.22.11-.44.23-.86.31-1.3.06-.28-.06-.53-.26-.69-.31-.25-1.22.33-1.05-.61.09-.47-.23-.94.09-1.44-1.22.42-2.01,1.61-3.49,1.36-.85,1.16-2.24.72-3.4.89-.09.28.14.39.2.55.11.36-.09.67-.43.8-.43.14-.4-.25-.48-.47-.2-.5-.54-.64-1.16-.58-.88.08-1.81.25-2.58-.33-.17-.14-.34-.25-.31-.47.03-.14.17-.19.31-.17,1.33.22,2.07-.86,3.35-1.05-1.28-1.16-3.2-1.19-4.08-2.61,1.59.22,2.84,1.47,4.59,1.16-.26-.53-1.13-.5-1.11-1.19,0-.11-.17-.22-.03-.33.17-.14.34-.08.48.06.28.25.54.44,1.02.31.48-.14,1.05-.19,1.3-.58.31-.5-.57-.58-.65-1.03.71-.39,1.39-.03,2.04.06.65.08,1.3.11,1.93-.03.48-.11,1.13-.17,1.02-.89-.03-.19.09-.31.28-.36,1.05-.33,1.45-1.03,1.36-2-.03-.25.17-.53.09-.8-.31-.17-.45.42-.82.08,0-.31.71-.67.28-.89-.28-.17-1.02-.44-1.39.17-.11.17-.23.25-.43.08-.17-.14-.14-.31.03-.42.26-.19.54-.33.79-.5.4-.25.4-.64.23-.94-.23-.42-.65-.19-.94-.03-.54.31-1.13.61-1.39,1.16-.23.44-.54.58-1.05.33.09-.42.77-.36.77-.86-.51-.25-.99-.36-1.59-.08-.31.14-.65.31-1.02.22-.31-.08-.88.06-.85-.39.03-.39.51-.25.79-.19.31.06.65-.14.62-.25-.14-.75.74-1.33.34-2.08-.2-.36.2-.36.4-.39.91-.08,1.7-.5,2.5-.8.48-.19.99-.36,1.11-1.03.06-.31.43-1,1.25-.69.4.14.65-.22.45-.53-.6-.83.11-1.3.51-1.94-.85.11-1.22-1.64-2.38-.47-.34-.55-.62-1.16-.82-1.78-.31-1.25.65-2.14,1.08-3.16.23-.55.99-1.08-.2-1.55-.2-.08-.23-.64-.2-.97.03-.22.4-.25.65-.22.43.06.77-.11,1.16-.17,1.39-.22,1.36-.25,1.22-1.55-.09-.72.68-.89,1.28-1.22-1.33,0-1.53-.97-2.27-1.94,1.28.61,1.64.19,1.84-.61.09-.42.57-.58.96-.69.48-.11.71-.36.45-.75-.4-.67.26-1.03.6-1.11.82-.22.51-.75.54-1.14,0-.28-.28-.5-.6-.25-.79.64-1.76.44-2.67.55-.37.06-1.02-.22-1.05.5,0,.03-.2.14-.26.11-.11-.08-.23-.17-.26-.28-.09-.69.94-1.14.57-1.97-.03-.08.88.03,1.36-.03,0,.22,1.13-.33.43.5-.17.19.45.25.71.22.51,0,.99-.22.77-.72-.14-.28-.06-.31.11-.39.85-.44.43-.78-.14-1.08-.48-.25-.57-.31-.09-.78.54-.53-.06-1.19-.57-1.64-.4-.36-1.19-.83-.91-1.14.43-.47.94.28,1.39.47.4.17.79.28,1.25.28.6,0,1.05-.39,1.05-.75.03-.42-.2-.97-.94-.97-.23,0-.57.14-.62-.19-.06-.19.17-.36.34-.44.54-.28.45-.8.54-1.19.11-.5.4-.83.91-.97.37-.08,1.02-.11,1.05.22.03.53.77.92.28,1.53-.48.55-.62.97.48.75.26-.06.62.08.54.44-.11.36-.26.75-.79.78-.23.03-.68-.14-.62-.08.51.69-.88.78-.51,1.39.03.03.06.06.06.08-.65,1.08-.4,1.97.94,2.66-1.05-.11-1.3.36-1.16.94.14.58-.17,1.39,1.11,1.55.88.11,1.16,1.05,1.13,1.91-.45.06-.74-.25-1.08-.36-.88-.33-1.36-.11-1.05.64.51,1.22-.28,2.33-.14,3.49.06.47.34.89.4,1.19.14.89,1.13,1.25,1.25,2.05.06.33.31.55.65.69.65.25.79.44.31,1.11-.09.64-.48.39-1.05-.17-.14-.14-.26-.31-.43-.42-.2-.14-.45-.36-.65-.14-.2.19-.14.44.09.69.71.75,1.25,1.66,2.1,2.3.09.06.17.14.23.22.2.33.6.75.2,1.03-.54.39-.6-.39-.96-.5.09.69.23,1.36-.96.69-.45-.25-1.33.44-1.25.97.06.39.11.94.4,1.05,1.05.5.96,1.36.99,2.14.09,1.22,1.39,1,2.01,1.53.23.19.94-.03.68.5-.17.36-.65.33-1.02.06-.45-.31-.82-.39-1.08.22-.11.28-.43.28-.71.33-.62.08-1.13.47-1.19.97-.14.8-.14,1.61.31,2.41,1.05,1.8,2.78,3.16,3.91,4.94.54.86,1.28,1.75,2.3,2.33.31.17.91.44.43.94-.37.39-.74,1-1.45.31-.06-.06-.26-.11-.26-.08-.68.89-1.08,0-1.56-.22-.74-.33-2.38,0-2.67.69-.26.64,0,1.47.51,1.77.88.53.74,1.33.96,2,.14.44.57.72.65,1.16.03.14.48.25.79.14.4-.14.03-.47.2-.75,1.02.67,2.01,1.33,3.03,2.02-.26.28-.96.14-.77.64.14.36.54.58,1.02.64.82.08,1.7-.25,2.38.42.4.39,1.16.53.68,1.36-.14.28.71.75.77,1.41-1.08-.39-1.64,1.33-2.84.39-.26.33.23.58-.06.83-.77.75-.23,1.25.43,1.75.74.58,1.45,1.16,2.38,1.53.48.17.79.08,1.22-.06.28-.08.54-.39.71.22.14.5.11,1.03-.37.94-1.05-.17-1.53.55-2.07.94-.68.5-1.25.47-2.04.36,1.39.55.88,1.78,1.28,2.69.17.42.09,1.08-.65,1.36-.28.11-.26,1.41.06,1.72.14.14.31.25.48.36-.68.58-.79,1.69-2.18,1.47.48.36.85.89,1.45.33.28-.28.37-.06.43.11.26.69.82.55,1.42.47.82-.11,1.64-.17,2.47-.28.4-.06.74-.17.68-.67-.06-.61-.4-.31-.71-.31-.23,0-.57-.03-.71-.17-.43-.5-.99-.55-1.62-.5-.28.03-.51-.08-.51-.36s.28-.08.4-.14c.94-.55,1.73-.33,2.61.22.74.44,2.3.17,2.81-.53.34-.47,1.22-.75.91-1.55-.03-.08.28-.33.45-.36.94-.22,1.42-.92,2.04-1.5.48-.44.48-.67.26-1.3-.34-1.03-.96-.94-1.76-.78-1.08.25-2.13.61-3.23.14-.23-.08-.71.17-.6-.31.06-.31.48-.53.74-.42,1.11.42,1.42-.5,2.35-.78-.77-.28-1.36-.22-1.81-.61.48-.36,1.36-.33,1.56-.5.68-.55,1.39-.64,2.1-.47,1.16.28,1.96-.39,2.84-.78.43-.19.14-.5-.11-.69-.6-.42-.91-.89-.79-1.58.06-.39-.26-.5-.6-.5-.71-.03-1.11-.25-1.11-1,0-.61-.11-.53-.96-.31-.45.11-1.08-.19-1.56-.44-.88-.47-1.84-.83-2.58-1.5-.14-.14-.34-.19-.31-.42.03-.17.11-.28.37-.19,1.76.5,3.2-.17,4.62-1.08.11-.33-.88-.28-.43-.75.34-.36.79-.33,1.19-.17,1.05.5,1.81.47,2.67-.44.6-.64,1.73-.64,2.92-.75-.68-.33-.17-1.25-1.59-1.08.68-.33.99-.47,1.5-.75-1.28.03-2.32-.19-3.26.58-.65.55-1.3.33-1.76-.33-.17-.25-.28-.61-.62-.61-1.5.08-2.27-1.33-3.69-1.36-.17,0-.48,0-.48-.28s.31-.28.48-.28c1.5.06,2.69-.86,4.14-.92.28,0,.31-.19.4-.36.09-.19.28-.5.45-.5.82,0,1.05-.97,1.93-.89.17.03.57-.19.06-.39-.26-.11-.09-.19.06-.22,1.28-.28.57-.75.14-1.16-.28-.28-.48-.58-.51-.97-.48.14-.28.55-.57.72-.37-.14-.11-.44-.23-.58-.4-.53-.26-1.33-1.53-1.36-1.79-.03-2.75-1.39-3.69-2.61.4-.25.54,0,.71.14.96.72,2.01.72,3.12.28,1.13-.44,1.42-1.39,1.73-2.25.14-.39-.48-.8-1.13-.72-.4.06-.79.33-1.36.06.74-.33,1.5-.94,1.5-1.39.03-1,.99-1.25,1.39-1.94-.6-.17-1.5-.17-.43-1.03.6-.5.06-1.16-1.02-1.25-.82-.06-1.64-.08-2.44-.33-.65-.22-.57-.69-.51-1.03.09-.55.54-.08.82-.11.91-.03,1.81-.03,2.75.17.71.17,1.87-1.3,1.53-1.86-.09-.14-.43-.17-.65-.25-1.3-.33-1.7-1.44-.88-2.41.54-.64,1.08-1.16,2.1-1.03.71.08,1.25-.11,1.56-.86.34-.83,1.42-1.08,2.21-1.44.74-.36.45-.83.34-1.11-.14-.39-.57-.17-.85.06-.17.11-.34.22-.54.28-.31.11-.65.19-.79-.22-.14-.36.09-.53.45-.61.14-.03.37.03.43-.19-.68-.36-1.28-.19-1.62.33-.31.44-.77,1.03-1.25,1.11-1.36.22-2.3,1.03-3.43,1.55-1.22.55-2.35.53-3.63.31.2-.53.68-.22.94-.39.09-.5-.57-.33-.71-.75.77,0,.4-.75.57-.83,1.16-.72-.82-.67-.26-1.19.31-.28.62.17,1.05,0-.11-.44-.74-.5-.91-.86.2-.28.4-.17.6-.11.99.31,1.98.33,2.89-.19.14-.08.34-.08.51-.14.28-.08.62-.17.77.14.17.42-.34.25-.54.39-.14.08-.31.17-.51.28,1.3.17,2.32-.42,3.4-.75.4-.11,1.02-.28.96-.89,0-.11.11-.28.2-.31,1.53-.25,1.53-1.66,2.27-2.5.4-.44-.31-.78-.71-.83-.96-.17-1.93-.19-2.35-1.22-.11-.25-.54-.17-.79-.06-.43.17-.79.08-1.13-.11-.54-.33-.96-.47-1.19.25-.03.11-.14.14-.26.11-.14-.06-.26-.11-.26-.28,0-.33.31-.44.57-.75-1.19.03-1.42-1-2.18-1.44-.23-.11-.17-.42-.03-.61.26-.39.17-.64-.26-.89-.14-.08-.37-.28-.23-.5.17-.28.43-.11.68-.08,1.19.19,2.27.86,3.54.61.14-.03.28-.03.34-.17-.11-.44-1.02-.28-.94-.78.11-.61.85-.28,1.28-.44.28-.11.62-.19.91-.33.45-.19.85-.39.11-.78-.31-.17-.68-.53-.48-.86.26-.42.6.03.94.08.82.17,1.47-.33,2.01-.64,1.08-.69,1.5-2,2.72-2.66.71-.39.62-1.28.74-1.91.03-.17-.96-.31-1.5-.36-2.35-.25-4.76-.33-6.95-1.3-.31-.14-.79-.28-.62-.67.26-.53.65-.06.88.08.94.5,1.84.39,2.64-.08.48-.31,1.42-.06,1.47-.92,0-.17.4-.08.57,0,.82.36,1.36.11,1.79-.55.54-.89,1.64-1.03,2.5-1.55.34-.19.79-.28.74-.83-.06-.5.17-.92-.6-1.25-.77-.33-1.39-.75-2.27-.47-.03,0-.09.03-.11,0-.62-.61-1.45-.97-2.27-1.44,1.19,0,2.21-.08,2.47-1.53.4.92.77,1.16,1.39.47.31-.36.71-.69.96-1.08.2-.31.23-.72-.03-1-.26-.28-.6-.03-.91.06-.17.06-.34.11-.48.19-.82.39-1.53.28-2.07-.42-.6-.8-1.25-.69-2.01-.22-.48.28-.91.72-1.73.61.85-.8,1.98-1.11,2.69-1.89.23-.22.48,0,.68.25.79,1.08.79,1.11,1.9.36.37-.25.65-.55.68.17.68-.17,1.42-.11,1.93-.64.09-.08.09-.28.2-.31.48-.19.71-.67.37-.92-.48-.36-.43.42-.77.47-1.13-.47-.34-1.3-.4-1.97-.14-1.53-.43-1.41-1.64-1.14-.68.17-1.33.14-2.01.06-.26-.03-.54-.08-.54-.36-.03-.28.2-.36.48-.44.71-.22,2.1-.25,2.04-.42-.26-.83.79-1.03.85-1.66.03-.22.4-.44.77-.83-.68.25-1.16.64-1.64.28-.43-.33.26-.61.17-.97-.65-.22-1.36-.14-2.01-.17-.23,0-.57-.06-.51-.36.06-.22.31-.25.54-.22,1.08.14,2.13.11,3.2,0,.88-.08,1.47-.31,1.47-1.28,0-.5.37-1.03.6-1.53.09-.19.17-.39,0-.53-.17-.17-.31.06-.45.11-.6.22-1.22.55-1.33-.44-.03-.31-.48-.33-.82-.31-1.16.06-2.15-.22-3.03-.94-.4-.31-.71-.64-.43-1.05.26-.42.57-.94,1.28-.86.71.06,1.42.22,2.01.61.57.39,1.11.36,1.62-.17-.79-.55-1.53-.89-2.58-.55-.74.22-.99-.03-1.19-1.16.71,1.14,1.33.14,1.98.19,1.11.11,2.01-.39,2.98-.69.37-.11.54-.36.34-.55-.37-.39-.62-.67-.2-1.19.17-.19-.17-.22-.4-.28-1.19-.36-1.36-.92-.51-1.86-.31-.06-.6-.11-.91-.19-.4-.11-.45-.44-.23-.58.51-.31.62-.94,1.33-1.08.43-.08.74-.33.28-.75-.31-.28-1.11-.5-.54-.97.37-.31,1.11-.17,1.47.39.03.06.17.08.31.17.06-.31.06-.55.11-.78.09-.31.31-.42.65-.31.28.08.45.17.4.55-.2,1.58.34,2.94,1.62,4.05.45.39.23.75.03,1.14-.51.94-.23,2.33.74,2.88.62.36.48.58.11.97-1.08,1.05-.88,1.58.74,1.97-.6.58-1.05,1.22-1.93,1.47-.43.11-.71.36-.23.64.85.44,1.02,1.5,2.04,1.75.09.03.14.11.23.19-.74.64,0,1.41-.26,2.11-.23.64-.51.33-.85.11-.37-.28-.6-.97-1.11-.75-.45.19-.11.8-.14,1.25-.03.42-.11.94-.4,1.25-.62.67-.23,1.14.26,1.61.6.55.68,1.41,1.45,1.86-.48.97.45,1.16,1.05,1.58.17.14.23.28.09.5-.34.61-.03,1.05.77.92.54-.08.79.14,1.11.42.4.39.82.78,1.53.61.14-.03.26.06.23.11-.43.64,0,1.28.03,1.89,0,.19-.34.44-.57.64-.09.06-.34.06-.4-.03-.17-.17.17-.17.17-.25-.11-.67-.2-1.36-.99-1.66-.43-.17-.71-.39-.79-.97-.57.8.2,1.28.14,1.86-.06.69-.23,1.05-.96,1.28-.54.17-1.08.31-1.59.55-1.02.47-1.39,1.22-.85,2.16.85,1.5,1.76,2.91,3.63,3.61-.09,0-.17.03-.26.03-.65.19-1.19-.14-1.79-.25-1.08-.22-1.76.17-1.79,1.14-.03.58.06,1.14.11,1.89.68-.64.91-.5.96.25.11,1.22.68,2.3,1.9,3.02.51.31.26.75,0,.97-.34.31-.43.67-.17.83.96.58,1.39,1.86,2.86,1.86.37,0,.34.47.65.67.82.5,1.76.5,2.64.69.11.03.34,0,.4-.08q.45-.67,1.33-.42c.23.06.48.17.74.03.14-.17,0-.31-.09-.44-.14-.19-.26-.44.03-.58.26-.14.54-.08.77.17.4.5.68,1.05,1.36,1.39-1.08,0-1.9.61-2.86.78-.43.08-.82,0-1.08.55-.17.33-.28.44.17.72-.79-.03-1.25-.39-1.76-.67-.48-.25-.85-.31-1.28-.03-1.08.67-2.24.97-3.6.53.37.94,1.33,1.58,1.08,2.63-.09.42.37.42.71.36.48-.08,1.33-.11,1.64.03.65.31,1.28.61,1.73,1.22.4.55,0,.64-.37.64-.48-.03-.94.06-1.39.11-.82.14-.85.8-.74,1.5.14.83.88.83,1.25,1.25.45.5.88,1.03,1.47,1.41.88.55,1.7,1.11,2.92.5.48-.25,1.05.17,1.28.64.26.53-.4.55-.68.67-.79.33-1.62.25-2.47-.14.68.72-.45,1.08-.31,1.69,0,.03-.14.08-.23.11-.43-.94-1.47.17-1.98-.64-.14,1.64,1.19,3.02,3.32,2.8.17-.03.34-.06.51-.11.2-.08.28-.72.62-.11.2.33,0,.75-.37.75-.82.03-1.67.42-2.47,0-.2-.11-.34-.08-.48.06-.14.14-.14.36.03.42.54.17.85,1.25,1.64.31.17-.19.54-.25.74.03.23.28.2.53-.2.69-.17.08-.28.31-.43.28-1.39-.11-2.15,1.28-3.66,1.11.62.75.96,1.64,2.21,1.28.03,0,.09-.03.11,0,.57.22,1.08.69,1.79.53.62-.17,1.25-.22,1.93-.14-.48.78-1.33.67-2.01.83-.6.17-.65.42-.45.83.34.78,1.28.89,1.9,1.36.17.14.31-.14.43-.31.4-.5,1.02-.39,1.56-.36.34.03.51.33.09.5-.6.25-.48.61-.34,1.05.31.86-.28,1.5-1.28,1.25-2.01-.5-4.08-.89-5.98-1.94-.03.5.85,1.3-.57,1.33,1.13.61,1.87,1.66,3.26,1.94.45.08.88.25,1.3.44.26.11.71.17.48.61-.2.36-.51.28-.82.22-1.22-.22-2.44-.39-3.66-.69-.48-.11-.65-.03-.82.31-.2.36-.11,1.03.14,1.41.62.94,1.73,1.36,2.72,1.61,1.36.33,2.32,1.16,3.57,1.66-.34.42-1.05-.08-1.19.44-.28.97.79.97,1.53,1.44-.71.06-1.19.08-1.67.11-.6.03-.88.39-.88.8,0,.44.48.94-.2,1.3-.03,0,.03.22.09.25,1.02.5,1.62,1.47,2.78,1.89,1.02.36,1.96.97,2.86,1.55.26.17.74.44.4.86-.28.33-.71.5-1.22.42-.65-.08-1.3-.17-1.96-.25-.06.39.26.31.43.36.57.28.88.55.06.89-.77.31-.45.5.09.69,1.56.53,3.03,1.19,4.71,1.36.51.06.94.11.6.78-.23.47.06.86.71,1.05-1.02.55-2.01.94-3.23.86.65.28.26.94.77,1.3-.23.06-.43.19-.6.19-1.02-.06-1.02.5-.68,1.03.54.86-.2,1.03-.77,1.19-.54.14-1.22.17-1.62-.25-.31-.31-.54-.06-.77-.03-.4.03-.06.28-.06.42.14,1.72.77,2.41,2.95,2.86,1.36.28,2.78.33,4-.55.09-.06.23-.17.26-.14.82.44,1.3.33,1.47-.58.03-.17.31-.03.45.06.68.42,1.3.08,1.79-.22.54-.33,1.05-.67,1.67-.86.26-.08.34-.22.4-.5.2-1.16.43-2.27,1.9-2.8.51-.19.91-.58.68-1.22-.23-.61-.65-.8-1.3-.69-.77.14-1.45-.06-2.38-.22.74-.31,1.3-.55,2.04-.86-.85-.25-1.56.06-2.24-.25.28-.33.6-.06.85-.14.77-.22,1.9.14,1.96-1.14.03-.39.71-.58.85-1.05-.43-.19-.65.06-.94.19-.4.22-.65-.03-.82-.25-.31-.33.17-.33.34-.5,1.02-1,1.98-2,2.13-3.41.03-.17.09-.39.23-.53.51-.64.09-1.05-.37-1.5-.17-.14-.94-.14-.26-.61.11-.08-.28-.22-.48-.17-.6.11-1.33.33-1.7-.17-.54-.72-.74-1.58-.85-2.47-.03-.25.34-.36.43-.19.28.64.96.44,1.45.58,1.05.28,1.59-.25,1.22-1.19-.14-.33-.23-.67-.14-1.08.31.17.09.58.51.72,0-.61.37-.89.99-1.11,1.81-.67,2.18-1.97.91-3.33-.31-.33-.94-.47-1.42-.69-.57-.28-.99-.61-.34-1.16.43-.36.06-1.16,1.19-1.28-.91-.28-1.11-.92-1.67-1.19-.48-.25-.09-.5.2-.61.71-.31.51-.5-.06-.69-.77-.28-.65-.69-.14-1.05.23-.17.68-.14.62-.53-.06-.36-.51-.28-.77-.42-.09-.06-.17-.08-.34-.17.54-.36.99-.14,1.47-.06.23.03.48.25.65-.06.11-.22,0-.44-.17-.61-.06-.08-.14-.17-.23-.19-1.53-.5-.88-.86.06-1.33,1.47-.72,1.84-1.94,1.67-3.36-.03-.25-.06-.55.2-.72.28-.19.6-.08.91.08.96.44,1.39,1.19,1.05,2.11-.2.55-.11,1.03.06,1.58.28.86.48,1.77.37,2.69-.06.42-.06.86.31,1.16.79.67,1.19,1.39.57,2.36-.17.28-.09.69,0,1.03.09.25.37.03.57.03.65-.06.34-.5.4-.83.03-.11.11-.22.26-.42.4.47.43.89.14,1.28-.4.58-.34,1.16-.17,1.78.11.42.06.69-.14,1.14-.31.67.28,1.36.68,1.97.4.61.17,1.91-.34,2.47-.4.44-.82.83-.65,1.66.14.67.48,1.8-.96,2.33-.71.28-.94,1.39-.91,2.11.03.58-.03,1.11-.14,1.66-.06.33-.11.67.23.86.43.28.2.42-.06.67-.45.47-.23,1.47.34,1.8q.74.42,1.08.97c.28-.25-.03-.47-.06-.69-.03-.36.06-.75.57-.78.4,0,.99-.31,1.16.33.14.58.71.94.96,1.47.31.64,1.08.19,1.73.31-1.3.39-.62,2.55-3.01,2.11.68.58.77,1.03.4,1.58-.14.22-.23.61.09.8.71.44.74,1.14.88,1.77.09.33.14.78.45.83,1.05.11,1.08.83,1.25,1.5.09.39.28.78.62,1,1.56,1.08,1.08,2.33.4,3.58-.2.36-.43.61.11.86.28.11.48.36.82-.03.31-.33.11-.44-.11-.67-.09-.08-.14-.22-.23-.39.71-.11,1.13-.03,1.5.58.26.42.94.5.74,1.3-.17.78-.65,1.05-1.25,1.36-.2.11-.71-.11-.62.33.03.17.31.33.51.44.4.25.48-.08.62-.28.03-.03.11-.03.26-.08.17,1.5,1.45,1.28,2.67,1.3-.77.5-2.98.31-3.91-.44-1.05-.83-2.67-.61-3.49-1.75-.4.5.09.89-.23,1.3-.4-.64-1.08-1-1.28-1.78-.45.36-.11,1.19-1.08.89-.23-.08-.2.78-.2,1.19.03.36.17.72.09,1.08.68.19.54-1.16,1.36-.47.37.33,1.05.31,1.16,1,.06.42.71.61,1.13.8,2.32,1,4.56,2.22,7,2.97.17.06.37.11.48.22.2.17.62.22.54.53-.11.42-.57.17-.82.14-.71-.06-1.39-.25-2.13-.14-.88.14-1.22.36-.6,1.08.11.11.17.28.31.5-.82-.39-1.62-.42-2.27-.8-.45-.28-.96.03-.96.42-.03.5-.03.72-.6,1.03-.51.25-.91.19-1.56.25,1.08,1.25.94,3.08,2.78,3.8.06.03.09.08.09.14.06,1.89.28,2.25,2.15,2.91.43.17.57.47.88.97.03-.83.09-1.47.11-2.11,1.3.75,1.42,2.55,3.35,2.58.14-.28-.34-.72.23-.97.34.03.28.33.31.5.09.69.28,1.19,1.22.67.14-.08.26,0,.34.14.14.25.23.5.03.72-.26.28-.43.55-.37.94.06.42.06.86-.74.61-.54-.17-.54.25-.43.61.09.22-.03.39-.26.47-.23.08-.28-.14-.4-.25-.77-.64-1.19-1.61-2.38-1.83,0,0-.09.06-.06.08.14.42.48.94.06,1.25-.45.31-1.05.03-1.53-.19-.51-.22-.96-.53-1.45-.78-.79.97-.28,1.69.45,2.41.14.14.23.36.23.53-.06,1.39,1.11,2.08,2.01,2.94.28.28.65.36,1.08.39.79.08.99.47.74,1.11-.14.33,0,.61.48.67.28.03.71.14.57.42-.17.33-.43-.03-.65-.11-.45-.11-1.08-.31-1.33.22-.43.8-1.02.61-1.7.39-.28-.11-.57-.31-.91-.22.26.25.2.36-.09.61-.26.25-.48.61-.54.92-.06.33.37.17.6.22.43.14.77.92,1.36.14.09-.11.37.22.54.39.4.36.57.8.54,1.3-.43.17-.34-.64-.79-.33.03,1.39,1.53,1.3,2.35,1.91.14.08.31.14.43.22-.82.94-1.73.03-2.61.11-.48.03-.71.22-1.11.33.37.33.91.19,1.19.55-.2.28-.57-.17-.82.25,1.16-.22.96,1.05,1.84,1.25.28.06-.09.8-.14.83-.6.31-.43.8-.48,1.22-.03.55-.34.8-.96.67l-.06-.06c-.06-.06-.11-.08-.17-.14l-.03-.03c-.23-.03-.4.08-.45.28-.03.06-.03.11,0,.17-.2.19-.28.39,0,.55.57.33.88.72.71,1.36-.03.06.11.25.11.25,1.02-.25,1.42.97,2.1.86,1.22-.22,1.05,1.22,2.01,1.08.06.64.14,1.28-.17,1.86-.28.5-.68.11-1.05.06-.45-.08-.99-.22-1.33.03-.82.67-1.02,1.78-.45,2.58.2.31.03.69.28.83.2.11.68.03.88-.11.45-.33-.34-.36-.28-.67.74-.17.96.55,1.47.72.43.14.79.39,1.3.28.45-.08.94-.03,1.33.28.43.33,1.39.64.11,1.16-.17.06-.26.31-.34.42.68.55,1.98.39,2.07,1.55,0,.08.17.22.28.25.6.11,1.02.42,1.33.92-.2.06-.4.17-.62.19-.6.03-1.62.06-1.7.33-.23.75-.82,1.39-.88,2.19,0,.11-.11.33-.03.33,1.02.14.43,1.5,1.5,1.58.2,0,.14.19.09.31-.11.22-.34.31-.6.36-.31.06-.26-.11-.2-.28.09-.36-.23-.33-.48-.33-.2,0-.48-.03-.45.25.09.61-.4,1.14-.26,1.8.09.36.51.86-.06,1.33-.2.17.57.33.85.53-.2.42-.65.14-.99.28.43.53.54,1.36,1.64.94.37-.14,1.62,1.16,1.59,1.55,0,.36-.17.47-.54.25-.4-.28-.85-.72-.99.19-.03.19-.26.08-.45.06-.82-.19-1.53-.58-1.98-1.22-.28-.39-.6-.19-.82-.14-.57.11.09.36,0,.39-.34.14-.23.89-.91.5-.28-.17-.6-.14-.79.08-.26.31.17.42.28.61.37.67,1.76.89,1.05,2,0,.03.2.17.31.22,1.3.69,2.69,1.33,3.91,2.14.77.5,1.5,1.11,2.24,1.66-.94-.03-1.84.06-2.84-.36.23,1.03.94,1.66,1.45,2.39.14.22.11.28.09.47-.11.72-1.08.36-1.11.53-.09.42,0,.44-.62.58-.99.22-1.59-.22-2.35-.47.2.39.6.53.23,1.03-.28.36-.2.86.48,1.16.28.11,1.02.44.4,1.08.74,0,1.28-.33,1.9-.47.43-.11.57-.08.51.42-.11.89.77,1.83,1.76,1.94.54.06,1.08.08.31.64.57.58.06,1.47.71,2,.43.36.34-.22.48-.36.09-.06-.31-.25-.03-.36.11-.06.45.08.48.17,0,.39.77.55.45.92s-.74.8-1.47.47c-.65-.31-1.42-.25-2.1-.55-.62-.28-.68.31-.82.61-.11.25.03.64-.51.22-.31-.22-.51-.31-.34-.64.06-.08-.06-.33-.09-.33-.37,0-.74-.03-1.11.06-.17.03-.34.25-.17.47.28.42,1.11.97-.31.89.37.25-.62.55.06.78.43.14.28.55.48.8.68.94,1.93.83,2.86,1.3.34.17.74.22,1.05.47.88.67,1.79,1.14,3.09.78.45-.11,1.13.28,1.64.58.51.31.94.39,1.47.14.43-.19.99-.17,1.11.25.11.33-.45.55-.82.61-.74.11-1.22.44-1.59,1-.23.36-.6.5-.99.25q-1.59-.97-3.6-1.19c1.02.22,1.53.72,1.22,1.69-.2.61.54.06.62.39-.28.5-.85.39-1.36.44-.26.03-.51-.03-.62.28-.09.25.11.33.31.44.17.08.34.19.26.36-.79,1.58.62.55,1.08.72-.31.25-.62.5-1.02.8.88.5,1.28,1.05.88,2-.14.33,0,1.16.71,1.47.31.14.74.31.68.67-.06.33-.57.19-.82.39-.09.06-.2.08-.28.14-.51.31-1.42.36-1.16,1.14.23.67.85-.17,1.28.11.06.03.11.08.17.11-.09.19-.31.14-.45.14-.31,0-.51.19-.48.42.03.28.37.28.62.25.26-.03.48-.17.74-.19.48-.06.88.22,1.11.5.26.33-.26.39-.45.58-.48.42-.23.72.31.97.62.25.94.55.06,1,.17.06.31.08.43.14.28.08.71.03.74.36.03.19-.06.61-.51.25-.11-.08-.2-.19-.28-.28-.51-.47-.6.33-.94.28-1.36-.19-1.9.92-2.72,1.5-.91.61.14,1.16.6,1.55.68.53,1.25.89.14,1.5-.34.19-.26.39.11.55.68.28,1.59.28,1.62,1.28,0,.08.54.19.85.25,1.02.28,1.28,1.16.51,1.86-.4.36-.94.47-1.42.64-.2.08-.48.11-.65-.19-.23-.42-1.33-.78-1.67-.47-.45.39-.62.11-.96-.08-.51-.31-1.13-.5-1.19.39-.03.33-.31.5-.45.75-.09.14-.17.28-.26.42,1.13.42-.2,1.47.65,1.97.11.06.37.11.28-.06-.14-.28-.23-.44.2-.33.31.08.4.39.2.64-.6.64-.14.8.48,1.08.51.22.88.72,1.28,1.11.57.55,1.28.64,1.84.42.6-.25.77-.19,1.05.25.2.31.68.11,1.02.31-.11.06-.2.14-.28.17-.37.08-.91.06-.99.44-.11.44.43.61.74.86.6.5,1.5.67,1.9,1.41.06.11.77.53,1.25.55.57.03.54.86,1.22.67.03.08.09.19.06.25-.03.06-.17.14-.26.14-.26,0-.51-.08-.74-.06-.51.06-1.33-.42-1.36.64,0,.11-.82.14-1.11-.31-.11-.19-.23-.42-.26-.61-.11-.94-.28-1.8-1.62-1.94-.17-.03-.06-.28-.09-.44-.11-.69-.94-1.03-1.53-.55-.37.28-.57-.06-.85.03-.2-.64-1.02-.47-1.45-.86-.48-.44-.77-.08-.88.33-.31,1-.14,1.05,1.11,1.89.45.31,1.05.78,1.11,1.47.06.67.71.89,1.3,1.31.06-.42-.43-.42-.26-.75.57.11,1.25.06,1.45.78,0,.06.11.11.17.11.88-.14.91.28,1.11.92.23.72.14.97-.6,1.3-.91.42-.94-.19-1.13-.64-.45-1-1.39-1.44-2.5-1.75-.28-.08-.57-.25-.88-.39-.11.28.26.47.09.83-.4.86,0,1.41,1.02,1.69.57.14,1.11.22.45.89-.14.14.03.47.06.72.28.03.34-.67.79-.11.74.94,1.08.89,1.64-.25.43.67-.09,1.61.79,2-1.02,1.36-1.39-.86-2.58-.36-.74.31-1.56-1.05-2.64-1.33.6.5.31,1.16.51,1.72-1.7-.11-3.06-.8-4.37-1.61-.31-.19-.77-.25-.2-.64.28-.19.06-.28-.17-.36-.48-.19-1.28-.19-.94-1.03.06-.14-.26-.22-.51-.22-.37,0-.77-.08-1.22-.17.09.31.34.67.48.75.37.22.48.42.4.78-.11.5-.6.17-1.02.39,1.25.28,1.53,1.08,1.73,2.02.14.61.68,1.16,1.02,1.75.09.17.23.36.23.53-.06.69.28,1.14.99,1.41.14.06.37.22.37.33-.06.64.26.83.91.78.09,0,.23.11.23.14-.23.81.45.89,1.02,1.08.14.06.23.22.34.33-.74.31-1.59-.36-2.27.25-.06.03-.11.06-.14.08-.14-.06-.31-.14-.45-.19h-.11s.06.03.06.03c-.45.36-.79.8-1.59.78-.51-.03-.65.89-1.33,1.08.34.19.91-.14,1.11.5.09.31.77-.17,1.22-.03.31.08.68-.11.82.39.14.5.62.92.14,1.44-.06.08-.14.17-.23.19-.65.19-2.95-.64-3.32-1.19-.03-.06-.03-.14-.06-.19-.23-.42-.62-.64-1.11-.72-.09-.03-.31.14-.31.22-.06.42.48.5.62.86-.26.28-.65.36-.96.22-.65-.25-1.02.11-1.19.5-.28.58-.68.83-1.33,1.05-.74.25.14.92-.14,1.39,1.02.11.88,1.03.88,1.44-.03,1.25,1.28,1.11,1.81,1.69.45-.36.34.42.71.28.26-.5-.37-.69-.48-1.16.6.47,1.5.08,2.1.72-.43.14-.94-.33-1.08.14-.17.44-.71.94-.06,1.47.17.14.28.36.45.53s.23.36-.03.47c-.17.08-.48.17-.54-.08-.11-.5-.23-.44-.51-.08-.4.47-.96.72-1.67,1.11.2-1.03-.82-1.41-.99-2.16-.2-.83-.68-1.58-.6-2.5.03-.39-.79-.47-.79-.92-.06-.97-1.33-1.28-1.39-2.27-.03-.31-2.07-.55-2.41-.31-.09.06-.2.19-.17.22.62.75-.37.86-.62,1.28-.17.28-.34.67-.06.78,1.47.55.34,1.08.03,1.64.79.31,1.73.14,2.47.72-.23.25-.91.03-.65.61.11.28-.11.33-.37.31-.28,0-.65-.03-.57.36.06.28.34.31.68.31.31,0,.51-.08.82-.22.03.72-.28,1.19-1.16,1.36.88.11,1.5.28.57,1.05-.37.31.2.47.23.8-.54-.06-1.05-.11-1.59-.17-.51-.06-1.05.55-.85,1,.2.42-.14.72-.34.86-.28.17-.82-.11-.88-.31-.2-.64-.74-1.08-.91-1.72-.06-.17-.14-.31.11-.36.11-.03.23-.06.17-.17-.11-.25-.31-.42-.65-.44-.03.97-1.47-.69-1.3.55.03.31-.03.64.26.89.23.19.2.44-.06.58-.51.22-.4.5-.26.86.37,1.03.85,2.02,1.98,2.63-.85.25-1.47-.25-1.93-1.44-.88.33-.96.44-.57,1.14.17.31.37.53-.06.8-.31.22-.23.5.06.75.62.53.6.75.2,1.5-.2.39.2.86-.06,1.31-.28.5-.48,1.05-.74,1.55-.51,1.05.09,2.22-.23,3.33.85.44-.14.69-.11,1.03.06.53.26,1.05.2,1.61-.06.47-.79.36-.85.89.91-.31,1.08.19.94.8-.11.5.62,1.14-.31,1.5.43.08.51.36.51.72.03,1.41.4,2.83.11,4.27-.11.5.09,1.19.28,1.72.17.58.34.97-.06,1.58-.14.25.11.86.14,1.33.09.83.26,1.61-.26,2.36-.28.44.48.33.51.78.09,2.11,1.33,3.99,1.39,6.13.03.61.43.94,1.25.92-1.05.11-1.79.69-2.69.92-.23.06-.65.03-.65.25.03,1.08-.48.55-1.05.36-.65-.22-1.28-.75-2.1.03-.57.53-2.5-.55-2.58-1.36-.03-.25,0-.5,0-.97-.57.58-1.08.67-1.7.47-.23-.08-.54-.14-.77.14-.37.44-.65.03-.88-.14-.26-.17-.43-.61-.2-.75,1.11-.61.68-1.72,1.13-2.55.28-.55.51-1.22.77-1.8.54-1.28.68-2.61.79-3.91.23-2.61.31-5.24.17-7.88-.06-1.25.06-2.5.14-3.72.11-1.16-.34-2.22-.65-3.33-.23-.78,0-1.58-.2-2.38-.14-.53.88-.42.91-.94-.28-.17-.71-.14-.88-.55.94.06.71-.47.6-.94-.31-1.11,0-2.19.14-3.27-.26-.03-.62.11-.96-.19.26-.25,1.08-.28.45-.89-.11-.11.17-.67.37-.97.88-1.41.37-2.69-.54-3.88-.34-.44-.99,0-1.53-.11-.31-.06-.17.5-.06.69.43.78-.09,1.14-.74,1.25-1.3.28-2.67.25-4,.19-.71-.03-1.08.47-1.7.86.03-.72.31-1.14.79-1.5.2-.17.45-.44.2-.67-.23-.19-.62-.03-.74.19-.48.75-1.33,1.03-2.04,1.53-.57.39-.65.22-1.16-.17-.43-.31-.94-.64-1.47-.75-.37-.08-.77.11-.68.64,0,.06.11.86-.68.67-.88-.22-1.25-.75-1.22-1.47,0-.28.54-.28.82-.28,1.45.06,2.89-.14,4.31.14.51.11,1.02-.08,1.42-.36.62-.42.57-.72-.26-1.3.6-.03,1.11-.5,1.45.25.09.17.28.19.45.11.23-.11.4-.31.43-.53.03-.19-.14-.28-.31-.31-.85-.06-1.81-.53-2.38.55-.23.42-.6.22-.71-.06-.37-1.03-1.02-.47-1.59-.25-.26.08-.4.42-.71.39-.23-.03-.62.19-.37-.39.23-.55-.51-.64-.96-.75-.54-.14-.54-.11-.43-.58.03-.08-.06-.22-.09-.22-1.22-.33-.2-.72-.14-1.16.06-.53.2-.86.68-1.11.03-.03-.03-.17-.06-.25-.03-.03-.17-.06-.17-.06-.34.36-1.05.39-1.16.89-.23.86-.68.97-1.22.28-.62-.81-1.25-.08-1.79,0-.65.11-1.36-.11-2.01.17-.17.08-.4-.22-.09-.36.68-.31.23-.72.11-1.08-.17-.58-.65-.22-.96-.19-1.02.11-1.42-.64-1.9-1.11-.43-.42-2.38-1.36-3.09-1.11.85.17.91.8,1.19,1.28.48.83,1.05,1.58,1.81,2.3.48.44,1.05.97,1.36,1.53.37.61.6,1.19,1.45,1.39.28.08.11.31.09.47-.03.42-.26.55-.74.58,1.59,1.05,3.15,2.11,4.73,3.16-.06.08-.11.19-.14.28-1.02-.94-2.72-.47-3.63-1.72-.23-.33-.68-.61-1.11-.72-1.67-.42-2.21-1.83-3.18-2.83-.26-.25-.43-.55-.68-.83-.62-.69-1.05-.64-1.45.14.09.22.37.19.54.28.26.14.71.17.62.55-.11.44-.45.06-.71.08-.34.03-.62.08-.4.44.37.64.54,1.08-.09,1.8-.45.53,0,1.47-.17,2.25-.2.86.31,1.66.31,2.52.03.55.11,1.11-.06,1.69-.09.31-.11.61.14.92.11.14.23.36.23.53-.14,1.86.14,3.72.23,5.57.06,1.36.31,2.72.54,4.08.06.28.11.56.11.86-.11,2.33.43,4.63.62,6.93.06.69.77,1.08.79,1.89.06,1.3.51,2.58.79,3.88.03.08-.11.22-.11.22,1.39.64.71,2.14,1.62,2.99.51.47,1.22.86.99,1.75-.09.31.71.5,1.13.5,1.36-.03,2.67,0,4.03.19.91.14,1.9-.11,2.84-.19,1.11-.11,2.13.11,3.26.14-.23.33-.71.11-.88.47.45.14.99-.14,1.45.19-.37.67-1.08.31-1.64.39.85.69.99.78,1.96.44.62-.22,1.25.06,1.98-.11-.57-.47-1.47-.19-1.81-.86-.14-.31-.26-.53.17-.55.79-.06,1.67-.47,2.24.53.31.55.06,2.27-.51,2.33-.6.06-1.22-.08-1.7-.39-.71-.44-1.3-.36-2.1-.11-.99.31-1.98,1-3.15.33-.17-.11-.6,0-.82.14-1.11.58-2.24.33-3.35.17-.26-.03-.62-.17-.57-.47.06-.25.37-.22.62-.25.54-.06,1.05-.08,1.59-.25-.96-.08-1.93-.17-2.89-.25-.23-.03-.45,0-.54.22-.17.39.31.53.43.83.11.31.96,0,.62.64-.28.5-.6.36-1.05.17-.26-.11-.71-.22-.85.39-.11.36-.51.78-1.33.58-.62-.17-1.45.19-2.1-.28-.06.28-.09.47-.54.53-.85.11-1.5.06-2.24-.5-.65-.5-1.67-.72-2.64-.75-.43-.03-.48.25-.65.53-.26.44-.77.67-1.3.69-.62.03-.54-.47-.6-.83-.03-.11.03-.33-.14-.31-1.05.11-1.42-.72-2.04-1.17-.54-.39-.96.17-1.45.06-1.02-.25-1.98-.14-2.89.36-.57.31-1.22.33-1.87.14-1.25-.36-2.47.14-3.71.19-.17,0-.4.19-.48.33-.26.58-.91.53-1.16.31-.88-.75-1.93-.28-2.89-.42-.28-.31.6-.47.14-.78-.31-.19-.48.17-.77.22-.14.03-.34.11-.43.06-.79-.55-1.47-.25-2.24.14-.48.25-.85-.58-1.56-.33-.91.31-1.67-.36-2.52-.55.14-.36.82-.33.77-.83,0-.03.2-.11.26-.08,1.22.58,2.75-.28,3.88.72.28.25.77.25.91-.28.03-.11.06-.33.2-.28,1.05.25,1.81-.61,2.81-.53.71.08.96-.31,1.16-.78-.14-.36-1.02.19-.96-.55.06-.67.4-1.08,1.11-1.28.94-.25,1.76-.67,2.47-1.33.2-.19.37-.42.4-.64.14-1.61.82-3.08,1.62-4.44.79-1.33.94-2.72,1.22-4.1.14-.61.51-1.16.79-1.64.45-.78.34-1.61.57-2.38.14-.5.14-1.25.03-1.89-.17-.92-.14-1.8.26-2.69.11-.25.62-.89-.31-1.03-.03,0-.09-.14-.09-.14,1.05-.5-.03-1.19.2-1.77.23-.67-.2-1.36.11-2.02.11-.25.14-.55-.2-.75-.99-.55-1.08-1.05-.77-2.16.26-.86.14-1.8.4-2.69.43-1.58-.14-3.22.45-4.8.23-.58-.11-.8-.88-.97.88-.36,1.08-.89.74-1.47-.23-.39.23-.39.31-.61.23-.55-.06-.92-.4-1.3-.4-.42-.6-.19-.91.06-.28.22-.6.17-.88-.06-.23-.19-.45-.39-.94-.31,1.13-.31,1.28-1.11,1.42-1.92.09-.53.31-.89.77-.17.14.22.45.28.48.08.14-.8,1.19-1.22.96-2.16-.14-.55-.23-.75-.94-.5-1.16.42-2.3.89-3.57.94-.31.03-.48.19-.51.42-.06.25.26.31.43.33.62.17,1.16.8,1.98.14-.03.67-.28.86-.82.8-.91-.11-1.76-.42-2.72-.22-.62.14-.79-.83-1.62-.72-.43.06-1.05-.28-1.19.25-.17.61.54.5.96.58.09.03.2.06.45.11-.77.25-1.39.5-2.04.61-.85.14-.37-.58-.68-.92-.62.97-1.81,1.42-2.55,2.33-.17.19-.54.28-.85.36-.23.06-.54.19-.48.31.28,1.05-.62.75-1.11.75-1.45-.06-1.84.19-2.21,1.44-.06.17.03.67-.2.44-.37-.33-1.08.33-1.16-.42-.06-.5-.54-.55-.96-.61-.43-.06-.68,0-.88.47-.2.55-.77.5-1.25.17-.48-.33-.96-.61-1.62-.61-.79,0-1.87,1.39-1.59,2.05.34.75,1.22,1.44.2,2.36-.2.17-.11.86.11,1.16.62.8-.09.92-.65,1.16.68.28,1.13,2.03.54,2.58-.74.67-.43,1.36-.31,2.02.09.53.06,1.03-.09,1.5-.14.5-.74,1,.31,1.25.06,0,.11.19.09.25-.43.78-.14,1.58-.14,2.36,0,.72,0,1.55-.06,2.22-.06,1.19.2,2.47-.23,3.69-.45-.11-.03-.64-.51-.64-.11,0-.31.17-.31.22.06.36.23.78.6.8.45.06.4.08.51.5.43,1.5.06,3.05.57,4.52.11.36.4.78.09,1.08-.28.28-.54-.44-.99-.11.17.42-.09,1,.74,1.28.28.11.54.72.51,1.11-.09,1.11.65,2.14.26,3.24-.14.42.37.61.82.72-.91.58-.85,1.44.11,2.02-.6.22-1.42.14-1.45.94,0,0-.34.06-.48,0-.54-.19-1.08-.03-1.36.31-.45.58-.65.11-1.05-.19.06.64-.43,1.14-.14,1.69.14.28-.09,1.11.82.53.26-.17.31.14.45.28.28.28-.03.33-.2.39-.68.33-1.33.75-2.04,0-.31-.36-1.19-.31-.91-1.14.09-.25-.51-.53-.94-.39-.31.11-.74.31-.2.67.2.14.11.31-.09.39-.37.17-.71.06-.99-.14-.2-.14-.57-.25-.31-.58.09-.14.23-.28.26-.42.14-.47-.23-.64-.65-.67-.31-.03-.51,1.11-.82.19-.11-.36-.51-.72-.43-1.03.23-.64.45-1.5.99-1.77.82-.42.37.5.54.83.31-.33.71-.64.51-1.03-.65-1.28.96-1.55,1.16-2.47-.23-.03-.54-.08-.85.25-.37.42-.79.22-1.08-.11-.31-.39,0-.58.34-.75.62-.31,1.08-.92,1.98-.61.34.11.57-.36.54-.69-.11-1.03.31-2.03.03-3.05-.34-.03-.23.31-.37.44-.31.39-.77.33-.79-.06-.09-.72-.48-.69-1.02-.5-.54.19-.68,0-.57-.42.2-.92-.09-1.83-.11-2.75,0-.58.03-1.08.71-1.47-1.56-.47-.96-1.44-.74-2.25.28-.94.28-1.94.48-2.86.26-1.16-.28-2.3.17-3.49.26-.67,0-1.61,0-2.44,0-.75-.03-1.5.03-2.25.03-.64.11-1.25-.48-1.72-.17-.14-.28-.5-.03-.61,1.05-.47.6-1.28.54-1.94-.06-.55-.17-1.05.11-1.58.2-.36.11-.92-.14-1.11-.62-.47-.43-1.16-.31-1.55.26-.92-.26-1.08-.99-1.22-.17-.03-.37-.08-.37-.31.31-.31.6.06.88.06.6,0,1.16-.53,1.08-1.05-.03-.14-.09-.22-.26-.28-.2-.06-.37-.03-.45.14-.11.25-.26.44-.57.53-.37.08-.74-.17-.54-.33.91-.78-.28-1.19-.28-1.83,0,.58-.62.86-.79,1.33-.68-.25-1.39.25-2.1-.08-.43-.19-.37-.17-.51.28-.03.11-.06,1.16-.79.33-.28-.33-.51-.03-.71.11-.31.22-.68.36-1.08.39-.34.03-.82-.17-.94.22-.11.39.6.31.71.61-.14.31-.74.33-.45.92.11.25-1.02.22-1.19.06-.85-.8-.79.06-1.11.47-.2-.72-.48-.67-.82-.11-.45.75-1.3.36-1.96.39-.26.03-.17-1,.17-1.14.31-.14.71-.31,1.02-.25,1.28.28,1.76-.64,2.47-1.25.11-.08.09-.19,0-.22-.85-.31-.06-.64-.03-.94.03-.42.37-.89-.51-.75-.45.08-.57-.36-.94-.39.14-.5.65-.67.96-.72.68-.14.62-.53.43-.83-.62-.97-.23-2.47-1.87-2.97-.2-.06-.34-.22-.51-.06-.14.14-.31.33-.31.5,0,.22.28.25.51.22.34-.06.71-.17.96.31-.99.33-2.32.69-2.89.22-.85-.72-1.3-.19-1.96-.06-.06,0-.11.08-.17.11-.45.28-.94.31-1.42.08-.11-.06-.26-.25-.23-.28.34-.36.6-.8,1.16-.94.23-.06.48-.11.74-.11.48,0,.11-1.14.99-.61.23-.47.48-.94.74-1.47-.82-.03-.77.58-1.19,1,.06-.89-.09-1.64-.71-2.25-.71.55-.96,1.5-1.67,2.16-.2.19-.37.44-.68.33-.4-.14-.06-.39-.03-.55.11-.42-.51-.64-.23-1.08-.57-.06-.82,1.28-1.53-.11.34,1.3-1.16,1.3-1.28,2.16-.03.11-.31.17-.34.06-.23-.5-1.13-.14-1.19-.8-.03-.28.26-.25.45-.31.06,0,.2-.03.2-.06.17-1.03,1.16-1.55,1.73-2.33.03-.06.09-.11.09-.17-.06-1,.2-1.22,1.39-1.3.71-.42.48-.89.4-1.25.11-.03.31-.08.4,0,.77.53,1.36.75,1.53-.42.03-.17.17-.25.34-.33.65-.28,1.28-.58,2.04-.92-.82-.08-.77-.33-.4-.75.71-.83,1.45-1.64,1.96-2.61.31-.61.54-1.64.23-1.75-.74-.28-1.39.39-1.9.94-.65.69-1.36,1.3-2.44,1.05-.74-.17-1.02.28-1.3.61-.51.61-.62,1.44-1.33,1.97-.28.19-.06.44.26.58.31.11.57-.31.88-.06.14.58-.68,1.03-.26,1.67Zm66.63-89.5c-.23-.86-1.13-.69-1.76-1.03-1.3-.67-1.33,0-1.5.78-.03.17-.09.31-.11.47-.11.55-.14,1.22.6,1.28.91.06.45-.69.48-1.08.03-.33-.03-.72.34-.83.37-.11.79.06,1.02.39.2.36.4.61.88.39.4.11.79.28,1.22.36.71.17,1.13.03.94-.75-.11-.44-.14-.86.34-1.22.28-.22.4-.58-.11-.89-.17.31.09.67-.37.86-.23-.31-.51-.64-.71-.97-.11-.19-.11-.47-.45-.42-.28.06-.31.31-.43.5-.31.72-.17,1.47-.37,2.16Zm-30.39,49.98c1.3-.17,1.84-.86,1.22-1.64.57-.14,1.3-.11.79-.97-.17-.33.34-.47.74-.47.51.03.96-.03,1.47-.19.94-.31,1.64.22,1.7,1.14.06.58.54.55.91.33.4-.25.65-.67,1.02-.97.23-.17.74-.42.71.03-.06.53.26,1.08-.09,1.58-.17.28-.26.53.09.75.31.22.6.08.91,0,.82-.19,1.56-.61,2.5-1.14-.31.58-.51.92-.71,1.25-.37.67.14.92.68.75,1.19-.39,1.19.22,1.19.94,0,.97.34,1.25,1.42,1.08-.79-.36-.4-.86-.11-1.25.43-.53.51-1.14.71-1.75-.54-.06-.57.33-.79.5-.37.28-.62.55-.99-.14-.45-.86.31-1.25.54-1.8.43-1.05.26-1.58-.82-1.97-.88-.31-.94-.36-1.47-1.05-.06-.08-.26-.14-.37-.14-.4-.06-.51-.39-.77-.58-.43-.33-.4-1.11-.77-1.11-.74,0-1.47-.53-2.18-.03-.74.47-1.7.78-1.45,1.89.03.11-.11.22-.37.19-.11-.22-.26-.47-.37-.72-.51-1.19-.71-1.25-1.96-.5-1.22.72-2.44,1.39-3.69,2.08-.34.17-.74.28-1.13-.06.48-.28.99-.53,1.42-.83.26-.19.34-.55.09-.78-.34-.28-.43.08-.62.25-.34.28-.74.47-1.13.69-.26.14-.74-.39-.88.19-.11.47.26.67.68.78-.17.36-.88.19-.71.64.14.33.54.61,1.02.64.4.03.82-.06,1.16.03.31.08.77-.33.94.31.14.53,0,.78-.4,1.05-.43.22-.71.58-.11,1-.6.31-1.59.31-1.16,1.39.11.28-.48.47-.71.22-.71-.75-1.13,0-1.67.17,1.13.42,2.32.39,3.4,0,1.08-.42,1.05-.53.28-1.5-.09-.08-.09-.17-.14-.28Zm16.53,83.65c-.37,1.41-.11,2.63-.2,3.88-.03.5.31.58.71.67.31.08.77.03.82.36.09.44-.6.25-.77.53-.14.22-.65-.11-.65.28,0,.14.26.28.43.39.31.22.57.17.79-.17.23-.36.43-.19.62.08.11.17.2.55.48.36.2-.14.48-.25.57-.58.14-.47-.17-.97,0-1.25.45-.72,1.13-1.33.28-2.16-.06-.06.09-.31.14-.44.09-.17.48-.36-.03-.47-.14-.03-.54-.22-.54.19,0,.25-.14.39-.4.33-.34-.08-.23-.33-.17-.55.09-.58.54-1.28-.4-1.67-.17-.08.03-.19.03-.28.34-1.41.14-2.8-.17-4.19-.03-.19-.11-.31-.34-.28-.37.03-.82-.25-1.11.11-.23.28-.31.67-.14,1,.28.53.37,1-.06,1.5-.09.11.2.39-.2.39-.23,0-.43-.06-.48-.28-.09-.58-.28-.47-.79-.22-.71.33-.37,1.03-.88,1.44-1.19.92-1.13.97-.85,2.08,0,.03,0,.06-.03.08-.62.61-.2,1.5-.85,2.19.54-.03.96-.31,1.33.08.09.08.31.25.4-.03.2-.67.91-1.05,1.13-1.77.14-.55.43-1.16,1.3-1.61Zm35.36-174.35c-1.08-.55-1.76-1.25-1.47-2.41.06-.22-.03-.42.03-.64.06-.31-.4-.75-.6-.53-.71.78-.82-.14-1.19-.25-.09.58-.6,1.03-1.05,1-.74-.06-1.39.11-2.07.14-.54.03-1.36.36-1.53-.64-.06-.44-.65-.31-1.05-.33q.09,1.19-1.93,1.08c.28.8,1.45,1.16,1.33,2.16-.03.14.06.17.17.14,1.05-.25,1.36.55,1.81,1.05.54.58,1.08,1.03,2.01,1.03.65,0,.96.31.4.86-.2.19-.34.44-.03.67.37.25.45-.14.54-.25.96-1.03,2.52-1.53,3.18-2.83.06-.11.14-.19.23-.08.54.61.79-.19,1.22-.17Zm-5.7,9.21c1.33.17,2.13-.11,2.75-.64.99-.83,2.41-1.19,3.09-2.36.06-.08.28-.22.11-.25-.6-.14-.91-.86-1.73-.53-1.02.42-2.21.17-3.26.14-2.18-.06-4.34-.53-6.49-.83-.43-.06-.57.03-.57.44,0,.58.6,1.05.48,1.55-.17.67.23.78.71.94.23.08.54.11.68.25,1.25,1.22,3.26.42,4.22,1.28Zm-45.36-5.13c-.11-.08-.26-.11-.34-.22-.43-.39-.88-.28-1.22,0-.37.28.03.61.17.83.57.86,1.11,1.8,2.5,1.75.11,0,.28.11.34.19.51.78,1.25.72,2.07.53.17-.03.37-.03.43-.22.03-.19-.14-.28-.28-.39-.48-.39-1.16-.28-1.73-.44-.45-.11-1.08-.19-.99-.69.09-.44.71-.53,1.16-.44.85.19,1.62-.03,2.44-.19.28-.06.57-.14.85-.08,1.81.31,3.29-.89,3.12-2.58-.06-.5-.17-.78-.85-.61-1.3.33-2.72.19-3.94.89-.62.33-1.16-.31-1.22-.47-.14-.44.45-.31.77-.42.68-.22,1.56-.03,2.1-.64.11-.11.28-.31.26-.39-.11-.33-.4.03-.48-.03-.88-.58-1.62.19-2.24.36-.88.28-1.81.5-2.72.78-.65.19-.79.47-.4,1,.26.5.68.89.23,1.5Zm43.55-13.23c-.28.22-.34.44-.17.72.17.31.51.36.82.33.6-.03,1.11-.31,1.59-.55.4-.19.82-.14,1.08.19.28.39-.17.61-.4.78-.71.47-1.5.72-2.41.58-.37-.06-.71-.11-.65.44.03.28.74.47.23.78-.34.22-.68-.22-.88-.22-.51.03-.82-.33-1.28-.39-.23.22.06.36.03.55-.17,1.47.03,1.64,1.73,1.83,1.22.14,2.04-.75,3.12-.86.06,0,.62-.39.03-.64-.34-.11-.09-.22,0-.33.82-1.19,1.5-2.5,3.15-3.02.26-.08.57-.17.4-.55-.17-.36-.45-.19-.74-.17-2.1.17-4.17,1.03-6.29.22-.17-.06-.28-.06-.23.14.03.14-.03.36.28.28.17-.03.4-.06.6-.11Zm-8.17,75.33c.57.28,1.19.17,1.39.61.65,1.64,2.38,1.25,3.71,1.61.17.06.4-.11.48-.31.23-.58-.17-1.44-.88-1.64-.28-.08-.4-.17-.51-.39-.43-.86-1.11-1.61-1.08-2.61,0-.5-.34-.86-.85-1-.74-.22-1.08.42-1.56.69-.51.33,0,.53.26.78.43.39-.45.19-.37.5.31.08.57.17.82.28.23.11.28.44.11.44-.77.08-.79.83-1.53,1.03Zm-10.32-11.21c.23-.28.17-.44.14-.58-.06-.25-.51-.53,0-.72.4-.14.91-.19,1.13.25.14.28.28.61.62.53.45-.08.26-.53.31-.83.09-.33-.14-.61-.28-.92-.26-.5-.62-.97-.4-1.55.14-.39-.03-.55-.4-.61-.51-.06-.57.31-.65.61-.06.22.45.5,0,.64-.43.14-.48-.31-.62-.53-.37-.61-.65-1.25-1.67-.67-.4.22-1.33-.44-1.36.58-.06-.03-.11-.06-.2-.08-.43-.14-.48.11-.48.39-.06,1.03.82,1.83,2.01,1.83.23,0,.57.06.54.19-.23,1.05,1.02.83,1.3,1.47Zm-58.27,34.25c.54.75.26,1.28-.45,1.75-.43.28-.96.5-1.28.89-.85.94-.54,2.14-.79,3.22-.03.17.43.47.51.39.43-.53,1.33-.55,1.59-1.14.26-.58.62-1,1.25-1.28,1.76-.75,1.76-2.36,2.32-3.66.06-.14.17-.42-.14-.47-.23-.06-.37.14-.45.31-.2.36-.54.58-.94.31-.54-.33-1.05-.22-1.62-.31Zm29.83-70c.23.06.45.17.54-.14.11-.33.17-.67-.26-.83-.4-.17-.79-.39-.74-.75.11-.78-.91-.78-1.05-1.44-.09-.33-.82-.94-1.53-.33-.54-.58-.88-.22-1.5,0-1.02.36-.51.72-.28,1.11.28.5.82.94.96,1.47.4,1.47,1.64,1.97,2.98,1.11.28-.22.51-.42.88-.19Zm-20.67,61.96c.06.53.51.69.91.83.17.06.54.03.45-.33-.11-.53-1.11-1.05-1.67-.89q-1.22.36-1.28-.75c-.03-.47-.03-.89-.74-.97-.65-.08-1.11-.03-1.33.61-.17.44-.43.8-1.02,1.03-.54.22-.85.72-.77,1.39.11.97.82.72,1.5.8,1.36.17,2.69.5,3.35-1.05.09-.28.34-.42.6-.67Zm53.45-66.56c.31.69-.43,1.22-.34,1.97.11.8.43,1.25,1.11,1.66,1.45.89,3.12.47,4.68.69.2.03.34-.08.31-.28-.03-.22-.2-.42-.4-.39-.77.11-.74-.42-.94-.8-.43-.78-.48-1.75-1.79-1.97-.62-.11-.82-.17-1.05.44-.06.17-.11.33-.31.31-.11,0-.31-.17-.28-.22.26-.8-.65-.94-.99-1.41Zm5.22,60.63c.45-1.25-.11-1.97-.62-2.72-.26-.39-.91-.08-1.05-.61-.09-.36-.26-.78-.82-.72-.51.06-.71.47-.96.75-.14.17-.14.47-.4.5-.34.03-.31-.31-.37-.5-.06-.19-.2-.47-.4-.33-.65.42-.65-.11-.88-.39-.37-.39-.77-.75-1.16-1.14s-.6-.28-.79.19c-.51,1.11.65,1.3,1.22,1.8.57.5,1.33.8,1.5,1.66.23,1.14,1.22,1.66,2.32,1.22-.79.11-1.25-.11-1.28-.8,0-.22-.48-.47-.11-.75.28-.22.71-.22,1.02,0,.91.5,2.24.5,2.78,1.83Zm40.91-.94c-.4-.5-1.13-.78-1.02-1.55.11-.75-.62-.89-1.22-1.08-.74-.22-1.5-.39-2.24-.64-.85-.31-1.53.39-2.35.31-.06,0-.2.31-.14.53.2.53.65.92,1.08,1.19.62.39,1.42.58,2.15.83.14.06.43.22.43,0,0-.72.23-.39.43-.11.43.58,1.11.58,1.73.55.37.03.71-.03,1.16-.03Zm-79.95-37.36c.51.67.91,1.19,1.3,1.72.34.44,2.13,1,2.5.64.48-.44,1.25-.36,1.42-.22,1.19.8,1.81-.03,2.58-.55.14-.11.34-.17.31-.36-.03-.28-.31-.19-.51-.25-.68-.14-1.36-.36-1.62-.97-.14-.33-.31-.28-.57-.42-.88-.44-1.45.22-2.18.22-.09.53.34.69.85.8-1.5.89-2.55-.44-4.08-.61Zm13.92-11.57c1.02.55,1.79.42,2.52,0,.28-.14.6-.22.91-.25.43-.03.68.03.68.5,0,.86,1.53,1.05,1.22,2.11,0,0,.06.03.09.03.65-.06,1.36-.17,1.76-.58.2-.22.28-.89-.31-1.28-.48-.31-.94-.69-.88-1.41.03-.39-.34-.94-.71-1.25-.31-.25-.62.31-1.02.36-.14.03-.28.08-.43.11-1.36.25-2.47,1.03-3.83,1.66Zm-1.5-33.06c.91-.14,1.79-.58,2.67-.03.28.17.51-.17.68-.36.34-.39,1.02-.39,1.16-.19.34.44.71.44,1.05.25.37-.22.57-.78.28-1.03-.74-.69.03-1.22.06-1.83,0-.06-.06-.08-.11-.14-1.08.31-2.15.58-3.32.67-.11,0-.26-.03-.26.19,0,.33-.03.33-.17.36-1.28.17-2.07.72-2.04,2.11Zm-15.76-5.8c.11.75-.06.94-.68.55-.17-.11-.43,0-.54.19-.48.67-.11,2.05.74,2.27,1.16.28,1.93,1.78,3.46.92.03-.03.11.06.2.08.85.19.85-.28.68-.78-.23-.64-.94-.92-1.36-1.44-.65-.72-1.93-.72-2.5-1.8Zm84.41,108.31c-.62-.42-1.3-.36-1.87-.67-.62-.33-.82-1-1.39-1.3-.65-.36-.06-.67-.06-.97,0-.47.48-.22.77-.22.31,0,.6.14,1.02-.11-1.47-.08-2.67-.72-4.03-.75-.2,0-.4-.17-.4.19,0,.58-.99.58-.94,1.39.09.89,1.08.55,1.39,1.05.48.72,1.3.83,2.13.61.45-.11.51.06.71.31.6.75,1.47,1.11,2.61,1.22-.62-.31-.91-.53.06-.75Zm-21.89-72.2c-.03-.22-.23-.25-.37-.33-.51-.33-.94-.8-1.28-1.19-.45-.5-.79-.44-1.36-.47-1.11-.06-1.81.47-2.5,1.08-.23.19-.91.17-.6.72.23.42.65.42,1.11.42.62,0,1.56-.5,1.47.69,0,.06.17.17.23.14,1.08-.19,2.13-.42,3.15-.83.09,0,.11-.14.14-.22Zm-4.73,11.87c1.11-.14,2.27.19,2.69-1.05.03-.11.37-.22.57-.25,1.11-.19,1.02-1.14,1.3-1.78.14-.31.06-1.16-.94-.69-.2.08-.51.08-.74.06-1.28-.19-1.59,1.08-2.58,1.3-.03,0-.09.14-.06.17.71.8-.06,1.47-.26,2.25Zm-12.84,2.3c-.31.36-.03.58-.06.67-.2.42.74.67.2,1.14-.2.17-.6.19-.51.53.14.44.6.22.91.31.71.17,1.59.03,1.5,1.16-.03.61.91.86,1.42.39.37-.33.71-.31,1.16-.22.68.14.45-.44.6-.72-.85-.28-1.19-1.05-1.79-1.58-1.02-.92-3.01.14-3.43-1.66Zm-39.61-40.69c-.06.42-.2.94.34,1.08.51.14.82.33,1.11.75.14.22.51.42.85.19.2-.14.65-.28.51-.5-.23-.39.51-.92-.26-1.16.14-.25.2-.53.65-.5.48.03.99-.08,1.5-.11.6-.03.88-.42.88-.8,0-.53-.6-.28-.91-.33-1.25-.22-2.38.39-3.6.39-.85,0-1.47.06-1.08,1Zm20.33-50.03c1.16.19,1.16.22.91,1.14-.09.28-.17.53.2.61.43.08.31-.25.34-.44.11-.47.54-.61.96-.53,1.11.22,1.67-.22,1.59-1.22-.03-.39-.06-.83.57-1,.31-.08.94-.17.62-.53-.26-.31-.43-.92-1.39-.61-1.59.5-2.32,1.72-3.8,2.58Zm-27.9,28.12c.06-1-.6-1.72-1.45-1.94-.17-.06-.28-.19-.43.03-.37.53-.94.97-.54,1.72.2.36.23.78.2,1.22-.06.78.77,1.58,1.62,1.61.45,0,.71-.14.74-.72.06-.78.06-1.47-.14-1.91Zm4.93,66.7c-.14-.28-.37-.55-.4-.86-.06-.75-.48-.8-1.25-.94-1.47-.28-2.18.92-3.35,1.16-.28.06-.45.44-.28.75.17.31.45.19.74.14.4-.06.79.03,1.08-.33.54.69,1.53.31,2.24.75.48.31,1.25-.14,1.22-.67Zm19.85,51.64c1.36-.14,1.59,0,1.62,1.22,0,.28.06.58.4.58.48,0,1.02.33,1.45.06.34-.22,0-.55-.09-.86-.23-.8-.68-1.66.06-2.47.4-.44-.23-.58-.4-.86-.2-.28-.43-.31-.79-.08-1.02.58-1.79,1.3-2.24,2.41Zm52.76,6.93c-.51-.67-.96-1.33-1.53-1.94-.34-.33-.71-.94-1.39-.5-.68.44-.94,1.53-.57,2.05.31.44,1.53.42.91,1.36,0,0,.03.06.06.06.45.08.96.31,1.39.25.71-.11.77-.78,1.13-1.28Zm-48.71-114.02c-.65.39-1.79.67-2.58.64-.23,0-.43-.11-.45.19-.06.69-.62,1.19-.91,1.83-.09.19-.31.36-.14.61.34.5,2.1.39,2.44-.17.31-.53.48-1.33.94-1.5.96-.36.71-.94.71-1.61Zm-5.95-6.38c.26-.78.82-1.16,1.56-1.39.28-.08.4-.28.37-.53-.03-.31-.31-.28-.57-.36-.85-.19-1.56.19-2.24.5-.34.17-1.13.33-.28.92.43.28,0,.67-.26.78-1.25.55-.17.89.2,1.03.74.25,1.59.39,2.01-.53-.2-.31-.6-.28-.79-.42Zm-7.46,56.05c-.74.31-1.73.5-2.72.8-.48.14-.34.55-.06.86.57.55,1.36.75,2.1.61.88-.17,1.36-.8,1.53-1.61.11-.53-.06-.72-.85-.67Zm-.88-21.41c-.62.14-.34-1-1.45-.42-1.11.61-1.45.69-.34,1.55.79.64,1.67.42,2.52.58.31.06.23-.22.26-.42.09-.78-.23-1.44-.6-2.11-.43.14-.14.58-.4.8Zm-32.01,11.04c-.28-.06-.62-.03-.82.22-.48.58-1.05,1-1.84,1.25-.28.11-.79.55-.09,1.05.57.42.85-.08,1.13-.08,1.25,0,1.5-.94,2.21-1.44.23-.17.45-.44.26-.78-.17-.33-.51-.19-.85-.22Zm79.9-36.36c-.71.03-.91-.72-1.36-.78-.88-.08-1.87-.28-2.38.86-.28.67-.31.97.48,1.16.45.11.82,0,1.25-.17.71-.28,1.22-.86,2.01-1.08Zm-76.78,21.27c.51.25.96.14,1.36.06.68-.11.45.53.79.64.17.06.45.17.51-.14.03-.28.09-.47.45-.31.31.14.45.06.54-.25.09-.25.03-.44-.2-.58-.26-.14-.54-.11-.65.14-.17.36-.37.31-.68.17-.4-.17-.28-.44-.28-.75,0-.28.03-.58.4-.55,1.28.08.37-.69.37-.92.03-.55-.51-.36-.85-.22-.48.19-.91.64-.62.94.6.67-.09.83-.4,1.03-.26.22-.54.42-.74.75Zm-1.56,20.61c.06-.55.2-1.08.96-.89.45.11.57,0,.65-.33.17-.58-.43-.25-.57-.36-.14-.14-1.19.17-.37-.64.4-.42-1.08-.47-1.11-1.19,0-.03-.26-.06-.4-.06-.03,0-.06.06-.06.06.23.53-.31.67-.6.92-.6.5.68.36.31.75.74.39.2,1.44,1.16,1.75Zm36.04-99.82c.34.55.94.44,1.36.67,1.02.55,1.84.36,2.44-.53.4-.58.96-.75,1.64-.58.54.14.43-.22.4-.42-.03-.28-.34-.42-.54-.33-.4.19-.85-.36-1.13.08-.34.58-.82.8-1.53.86-.85.06-1.7.17-2.64.25Zm35.02,96.1c-.77.03-1.25-.17-1.53-.8-.11-.25-.57-.44-.77-.75-.14-.22-.37-.19-.57-.11-.31.11-.09.33-.09.5,0,.25.26.42.28.58.09.58.71,1.03.51,1.64-.06.19-.4.33-.09.55.23.14.45.08.71,0,.85-.28.82-1.19,1.53-1.61Zm5.08,28.12c.06-.33.09-.64.6-.69.45-.06.65.25.88.47.23.22.17.53-.09.72-.26.19-.31.39-.06.55.2.14.51.97.68-.03.09-.44.79.08.91-.39.06-.19-.96-2.19-1.16-2.25-.96-.33-1.33.58-2.01.83-.54.17.34.42.26.78Zm-23.08,37.05c-.45,1.28.79,1,1.33,1.08.71.11.26-.42.26-.69s.2-.39.43-.5c.17-.08.28-.22.2-.47-.17-.47-.6-.86-.96-1.08-.37-.22-.71.42-.99.69-.26.31-.23.69-.26.97Zm-5.98-103.56c-.14.67.03,1.14.85,1.16.43.03,1.73-1.36,1.56-1.75-.37-.92-1.22,0-1.87-.28-.45-.17-.85.36-.54.86Zm-20.87,130.94c.37.14.77.17,1.08.03.82-.33,1.36-1.05,2.3-1.28.28-.06.37-.5-.09-.53-.71-.03-1.47.03-2.18.14-.99.14-.82,1.03-1.11,1.64Zm-14.66-113.44c-.23-.5-.17-1.3-1.11-1.16-.79.11-.62,1-.71,1.5-.06.39.2,1.22.96,1.14.82-.11.99-.75.85-1.47Zm-11.51,53.39c.57,0,2.24-1.33,2.3-1.8.03-.17-.06-.39-.17-.53-.2-.19-.37,0-.57.11-.26.11-.45.28-.77.31-.48.03-1.45,1.3-1.3,1.72.09.19.28.19.51.19Zm94.36-28.26s-.03-.06-.06-.08c-.06.03-.09.06-.14.11,0,0,.03.06.06.06.06-.03.09-.06.14-.08Z"/></svg>