<?xml version="1.0" encoding="UTF-8"?><svg id="Layer_2" xmlns="http://www.w3.org/2000/svg" viewBox="0 0 132.31 144"><defs><style>.cls-1{fill:none;stroke:#952c33;stroke-miterlimit:10;stroke-width:1.5px;}</style></defs><path class="cls-1" d="m29.07,69.43h70.04c.21,3.3.37,12.6-5.7,21.45-9.93,14.48-27.61,14.75-29.32,14.74-1.79.11-16.54.77-26.98-11.06-9.26-10.49-8.25-23.02-8.04-25.13Z"/><path class="cls-1" d="m99.17,38.93l-26.88,30.49h10.05l20.44-26.81c.94-1.21.72-2.91-.34-3.75-.9-.71-2.27-.71-3.27.06Z"/><path class="cls-1" d="m65.26,100.33c.84-.02,1.81-.09,2.88-.27,1.03-.17,1.93-.41,2.71-.66"/><path class="cls-1" d="m75.33,98.28c2.68-1.09,9-4.09,13.79-11,3.71-5.34,4.83-10.59,5.22-13.42"/></svg>