<?xml version="1.0" encoding="UTF-8"?><svg id="Layer_2" xmlns="http://www.w3.org/2000/svg" viewBox="0 0 132.31 144"><defs><style>.cls-1{fill:none;stroke:#952c33;stroke-miterlimit:10;stroke-width:1.5px;}</style></defs><polygon class="cls-1" points="76.19 35.32 79.98 36.78 75.22 49.76 71.35 48.47 76.19 35.32"/><polygon class="cls-1" points="85.31 41.05 88.29 43.88 80.71 53.23 77.89 50.81 85.31 41.05"/><polygon class="cls-1" points="83.09 54.28 95.64 48.39 97.41 51.34 84.5 57.83 83.09 54.28"/><path class="cls-1" d="m34.9,108.68l12.99-48.99c.55-1.15,4.22-8.61,13.02-11.15,9.67-2.79,17.35,2.71,18.22,3.35,1.12.92,7.12,5.99,7.88,14.74.89,10.27-6.18,16.94-7.03,17.72-15.03,8.11-30.05,16.22-45.08,24.33Z"/><line class="cls-1" x1="44.73" y1="92.55" x2="53.12" y2="98.85"/><line class="cls-1" x1="56.57" y1="80.28" x2="63.87" y2="86.12"/><line class="cls-1" x1="67.7" y1="55.67" x2="86.99" y2="70.45"/><line class="cls-1" x1="60.22" y1="61.58" x2="51.41" y2="54.52"/></svg>