<?xml version="1.0" encoding="UTF-8"?><svg id="Layer_2" xmlns="http://www.w3.org/2000/svg" viewBox="0 0 132.31 144"><defs><style>.cls-1{fill:none;stroke:#952c33;stroke-miterlimit:10;stroke-width:1.5px;}</style></defs><polyline class="cls-1" points="67.67 44.2 53.48 44.2 53.95 58.04"/><polyline class="cls-1" points="72.81 60.7 72.81 70.06 82.3 70.06"/><circle class="cls-1" cx="91.29" cy="44.81" r="1.97"/><path class="cls-1" d="m100.65,36.81c.52,2.8,3.79,22.05-9.48,38.3-16.37,20.04-42.43,16.57-43.72,16.38-.5-3-3.29-21.7,9.61-37.69,16.2-20.08,42.07-17.19,43.6-17Z"/><path class="cls-1" d="m74.11,40.89c.57,2.41,2.55,9.4,9.15,15.06,6.06,5.2,12.56,6.33,15.09,6.63"/><path class="cls-1" d="m46.84,84.79c-.57-.35-4.93-2.95-9.68-1.1-3.76,1.47-6.96,5.42-6.09,7.38,1.16,2.6,8.26-.9,12.47,2.89,4.48,4.04,1.17,12.29,4.09,13.37,2.11.78,5.9-2.77,7.28-6.58,1.54-4.25-.18-8.05-.6-8.91"/></svg>