<?xml version="1.0" encoding="UTF-8"?><svg id="Layer_2" xmlns="http://www.w3.org/2000/svg" viewBox="0 0 132.31 144"><defs><style>.cls-1{fill:none;stroke:#952c33;stroke-miterlimit:10;stroke-width:1.5px;}</style></defs><circle class="cls-1" cx="79.33" cy="51.23" r="3.26"/><line class="cls-1" x1="73.67" y1="60.22" x2="86.06" y2="76.06"/><line class="cls-1" x1="63.02" y1="59.42" x2="75.4" y2="74.99"/><line class="cls-1" x1="64.75" y1="74.99" x2="52.37" y2="59.42"/><line class="cls-1" x1="52.37" y1="77.52" x2="45.98" y2="74.99"/><path class="cls-1" d="m40.93,71.8c-.6-.31-2.73-1.49-3.86-4.13-1.09-2.53-.58-4.78-.4-5.46"/><path class="cls-1" d="m102.37,74.8c-.69,1.83-4.3,10.85-14.19,15.24-7.06,3.14-13.5,2.22-15.98,1.73-12.51-5.17-25.03-10.34-37.54-15.51-.48-.33-4.96-3.51-5.19-9.39-.23-5.83,3.93-9.34,4.39-9.72,12.47-5.19,24.94-10.38,37.41-15.58.81-.09,16.71-1.55,26.09,10.92,7.23,9.6,5.35,20.48,5,22.3-.33,5.16-.65,10.33-.98,15.49-2.3,2.49-6.66,6.55-13.34,9.33-8.11,3.37-15.34,3.05-18.84,2.66-13.07-6.12-26.14-12.25-39.21-18.37-.18-5.68-.36-11.36-.53-17.04"/></svg>