<?xml version="1.0" encoding="UTF-8"?><svg id="Layer_2" xmlns="http://www.w3.org/2000/svg" viewBox="0 0 132.31 144"><defs><style>.cls-1{fill:none;stroke:#952c33;stroke-miterlimit:10;stroke-width:1.5px;}</style></defs><line class="cls-1" x1="56.47" y1="69.51" x2="60.43" y2="59.15"/><path class="cls-1" d="m62.41,53.97c.25-.94,2.17-7.69,8.99-10.81,8.35-3.83,16.11,1.43,16.45,1.68"/><path class="cls-1" d="m45.2,79.56c-.06.43-.49,3.69,1.05,6.99.52,1.1,1.25,2.21,2.3,3.21,3.14,3.03,7,3.19,7.92,3.2,11.37-4.47,22.74-8.94,34.12-13.4,2.14-1.27,7.38-4.76,10.05-11.42,3.41-8.5,1.63-19.55-6.24-26.35-8.35-7.21-19.55-6.18-26.81-2.44-6.71,3.46-9.94,9.17-11.12,11.58-3.76,9.54-7.51,19.09-11.27,28.63Z"/><path class="cls-1" d="m46.26,86.55l-8.97,9.15c-2.63-1.46-5.77-.41-6.85,1.83-.86,1.77-.34,4.13,1.37,5.64l2.44,1.68c1.19,2.58,4.29,3.39,6.24,2.13,1.65-1.07,2.34-3.52,1.29-5.64,3.18-3.21,6.36-6.42,9.54-9.63"/></svg>